# Blender v2.80 (sub 75) OBJ File: 'p.blend'
# www.blender.org
mtllib p.mtl
o Plane
v -1.000000 0.000000 0.000000
v 1.000000 0.000000 0.000000
v -1.000000 0.000000 -1.000000
v 1.000000 0.000000 -1.000000
v -1.000000 0.000000 -3.000000
v 1.000000 0.000000 -3.000000
v 2.000000 0.000000 -1.000000
v 2.000000 0.000000 -3.000000
v 2.000000 0.000000 -1.000000
v 4.000000 0.000000 -1.000000
v 2.000000 0.000000 0.000000
v 4.000000 0.000000 -0.000000
v -1.000000 0.000000 2.000000
v 1.000000 0.000000 2.000000
v -1.000000 0.000000 5.000000
v 1.000000 0.000000 5.000000
v -1.000000 1.000000 -1.000000
v -1.000000 1.000000 0.000000
v 1.000000 1.000000 0.000000
v 1.000000 1.000000 -1.000000
v 1.000000 1.000000 -3.000000
v -1.000000 1.000000 -3.000000
v 2.000000 1.000000 -1.000000
v 2.000000 1.000000 -3.000000
v 2.000000 1.000000 -1.000000
v 4.000000 1.000000 -1.000000
v 2.000000 1.000000 0.000000
v 4.000000 1.000000 -0.000000
v -1.000000 1.000000 2.000000
v 1.000000 1.000000 2.000000
v -1.000000 1.000000 5.000000
v 1.000000 1.000000 5.000000
vt 0.000000 0.000000
vt 0.000000 1.000000
vt 1.000000 1.000000
vt 1.000000 0.000000
vt 0.000000 1.000000
vt 1.000000 1.000000
vt 1.000000 1.000000
vt 1.000000 1.000000
vt 1.000000 1.000000
vt 1.000000 1.000000
vt 1.000000 1.000000
vt 1.000000 1.000000
vt 1.000000 0.000000
vt 0.000000 0.000000
vt 1.000000 0.000000
vt 0.000000 0.000000
vt 0.000000 0.000000
vt 1.000000 0.000000
vt 1.000000 1.000000
vt 0.000000 1.000000
vt 1.000000 1.000000
vt 0.000000 1.000000
vt 1.000000 1.000000
vt 1.000000 1.000000
vt 1.000000 1.000000
vt 1.000000 1.000000
vt 1.000000 1.000000
vt 1.000000 1.000000
vt 0.000000 0.000000
vt 1.000000 0.000000
vt 0.000000 0.000000
vt 1.000000 0.000000
vn 0.0000 -1.0000 0.0000
vn 0.0000 1.0000 0.0000
vn 0.0000 0.0000 -1.0000
vn 0.5547 0.0000 0.8321
vn -1.0000 0.0000 0.0000
vn 0.0000 0.0000 1.0000
vn 1.0000 0.0000 0.0000
vn 0.7071 0.0000 -0.7071
usemtl None
s off
f 1/1/1 3/2/1 4/3/1 2/4/1
f 3/2/1 5/5/1 6/6/1 4/3/1
f 6/6/1 8/7/1 7/8/1 4/3/1
f 8/7/1 10/9/1 9/10/1 7/8/1
f 10/9/1 12/11/1 11/12/1 9/10/1
f 2/4/1 14/13/1 13/14/1 1/1/1
f 11/12/1 12/11/1 14/13/1 2/4/1
f 14/13/1 16/15/1 15/16/1 13/14/1
f 18/17/2 19/18/2 20/19/2 17/20/2
f 17/20/2 20/19/2 21/21/2 22/22/2
f 21/21/2 20/19/2 23/23/2 24/24/2
f 24/24/2 23/23/2 25/25/2 26/26/2
f 26/26/2 25/25/2 27/27/2 28/28/2
f 19/18/2 18/17/2 29/29/2 30/30/2
f 27/27/2 19/18/2 30/30/2 28/28/2
f 30/30/2 29/29/2 31/31/2 32/32/2
f 6/6/3 5/5/3 22/22/3 21/21/3
f 14/13/4 12/11/4 28/28/4 30/30/4
f 7/8/5 9/10/5 25/25/5 23/23/5
f 5/5/5 3/2/5 17/20/5 22/22/5
f 11/12/3 2/4/3 19/18/3 27/27/3
f 15/16/6 16/15/6 32/32/6 31/31/6
f 12/11/7 10/9/7 26/26/7 28/28/7
f 16/15/7 14/13/7 30/30/7 32/32/7
f 3/2/5 1/1/5 18/17/5 17/20/5
f 9/10/5 11/12/5 27/27/5 25/25/5
f 8/7/3 6/6/3 21/21/3 24/24/3
f 13/14/5 15/16/5 31/31/5 29/29/5
f 4/3/6 7/8/6 23/23/6 20/19/6
f 2/4/7 4/3/7 20/19/7 19/18/7
f 1/1/5 13/14/5 29/29/5 18/17/5
f 10/9/8 8/7/8 24/24/8 26/26/8
