# Blender v2.80 (sub 75) OBJ File: 'the_room.blend'
# www.blender.org
mtllib crate.mtl
o crate_Cube.009
v -4.829826 0.000308 -7.438722
v -4.829826 2.000308 -7.438722
v -5.968548 0.000308 -9.082897
v -5.968548 2.000308 -9.082897
v -3.185651 0.000308 -8.577444
v -3.185651 2.000308 -8.577444
v -4.324373 0.000308 -10.221620
v -4.324373 2.000308 -10.221620
vt 0.625000 0.000000
vt 0.375000 0.250000
vt 0.375000 0.000000
vt 0.625000 0.250000
vt 0.375000 0.500000
vt 0.625000 0.500000
vt 0.375000 0.750000
vt 0.625000 0.750000
vt 0.375000 1.000000
vt 0.125000 0.750000
vt 0.125000 0.500000
vt 0.875000 0.500000
vt 0.625000 1.000000
vt 0.875000 0.750000
vn -0.8221 0.0000 0.5694
vn -0.5694 0.0000 -0.8221
vn 0.8221 0.0000 -0.5694
vn 0.5694 0.0000 0.8221
vn 0.0000 -1.0000 0.0000
vn 0.0000 1.0000 -0.0000
usemtl None
s off
f 2/1/1 3/2/1 1/3/1
f 4/4/2 7/5/2 3/2/2
f 8/6/3 5/7/3 7/5/3
f 6/8/4 1/9/4 5/7/4
f 7/5/5 1/10/5 3/11/5
f 4/12/6 6/8/6 8/6/6
f 2/1/1 4/4/1 3/2/1
f 4/4/2 8/6/2 7/5/2
f 8/6/3 6/8/3 5/7/3
f 6/8/4 2/13/4 1/9/4
f 7/5/5 5/7/5 1/10/5
f 4/12/6 2/14/6 6/8/6
