# Blender v2.80 (sub 75) OBJ File: 'the_room.blend'
# www.blender.org
mtllib piano.mtl
o piano_Cube.005
v -4.263208 0.005717 -0.136143
v -4.390160 0.234620 -3.062780
v -4.729478 4.360405 2.036576
v -5.582725 0.005717 2.036576
v -4.390160 0.234620 2.036576
v -4.729478 4.360405 1.965932
v -4.390160 0.005717 2.036576
v -4.729478 4.360405 -3.003803
v -3.992340 1.896875 -3.003803
v -3.992340 1.896875 1.965932
v -3.992340 2.267266 -3.003803
v -3.992340 2.267266 1.965932
v -4.729478 2.389784 -3.003803
v -4.729478 2.389784 1.965932
v -5.582725 4.360405 2.036576
v -4.263208 0.234620 -0.136143
v -3.992340 2.392809 -3.003803
v -3.992340 2.392809 1.965932
v -4.729478 2.515327 -3.003803
v -4.729478 2.515327 1.965932
v -5.582725 0.005717 -3.062780
v -5.582725 4.360405 -3.062780
v -4.390160 0.005717 -3.062780
v -4.729478 4.360405 -3.062780
v -3.992340 1.896875 -3.062780
v -3.992340 1.896875 2.036576
v -4.729478 2.515327 -3.062780
v -4.390160 1.847822 -3.062780
v -3.992340 2.392809 -3.062780
v -4.263208 0.234620 -0.890062
v -4.390160 1.847822 2.036576
v -3.992340 2.392809 2.036576
v -4.729478 2.515327 2.036576
v -4.390160 0.234620 -0.136143
v -4.390160 0.234620 -0.890062
v -4.390160 0.005717 -0.136143
v -4.390160 0.005717 -0.890062
v -4.263208 0.005717 -0.890062
v -4.263208 0.234620 -0.412037
v -4.263208 0.005717 -0.664420
v -4.263208 0.234620 -0.614168
v -4.263208 0.005717 -0.361785
v -4.263208 0.234620 -0.208283
v -4.263208 0.005717 -0.785593
v -4.263208 0.234620 -0.817922
v -4.263208 0.005717 -0.240611
v -4.263208 0.120168 -0.361785
v -4.263208 0.120168 -0.664420
v -4.263208 0.120168 -0.240611
v -4.263208 0.120168 -0.785593
v -4.055867 0.092184 -0.208283
v -4.055867 0.092184 -0.384952
v -4.055867 0.092184 -0.641253
v -4.055867 0.092184 -0.817922
v -4.055867 0.120168 -0.384952
v -4.055867 0.120168 -0.641253
v -4.055867 0.120168 -0.208283
v -4.055867 0.120168 -0.817922
v -4.729478 2.389784 -0.518936
v -4.729478 3.375094 1.966139
v -4.729478 3.375094 -3.003472
v -4.729478 2.389784 0.198763
v -4.729478 2.530673 0.198823
v -4.729478 2.389784 -1.236577
v -4.729478 2.530673 -1.236481
v -4.668460 2.389784 -1.236577
v -4.668460 2.389784 -0.518936
v -4.668460 2.530673 -1.236481
v -4.668460 2.530673 -0.518936
v -4.668460 2.389784 0.198763
v -4.668460 2.530673 0.198823
v -4.788335 4.360405 -0.518936
v -4.788335 4.360405 1.965932
v -4.788335 2.389784 0.198763
v -4.788335 2.389784 1.965932
v -4.788335 2.515327 1.965932
v -4.788335 2.515327 -3.003803
v -4.788335 2.389784 -3.003803
v -4.788335 4.360405 -3.003803
v -4.788335 2.530673 -0.518936
v -4.788335 2.530673 -1.236481
v -4.788335 3.375094 1.966139
v -4.788335 2.530673 0.198823
v -4.788335 3.375094 -3.003472
v -4.788335 2.389784 -1.236577
vt 0.950503 0.949179
vt 0.832325 0.766634
vt 0.865950 0.700487
vt 0.666773 0.187599
vt 0.666773 0.012480
vt 0.740823 0.012481
vt 0.634470 0.505532
vt 0.549917 0.505532
vt 0.628637 0.499688
vt 0.707933 0.766340
vt 0.674308 0.700193
vt 0.792486 0.517648
vt 0.000208 0.290225
vt 0.000208 0.215515
vt 0.118386 0.000208
vt 0.740822 0.504960
vt 0.777527 0.012480
vt 0.777527 0.504960
vt 0.118386 0.505532
vt 0.549917 0.000208
vt 0.612250 0.555093
vt 0.618094 0.629142
vt 0.612250 0.629142
vt 0.611801 0.629143
vt 0.604800 0.555093
vt 0.611801 0.555093
vt 0.611780 0.714344
vt 0.604801 0.811982
vt 0.604800 0.629143
vt 0.612250 0.542652
vt 0.618094 0.505948
vt 0.618094 0.555093
vt 0.604384 0.540014
vt 0.592417 0.518437
vt 0.604384 0.518437
vt 0.977108 0.510804
vt 0.999792 0.295497
vt 0.999792 0.510804
vt 0.977109 0.220787
vt 0.999792 0.005480
vt 0.999792 0.220787
vt 0.612217 0.714341
vt 0.618094 0.811982
vt 0.604800 0.505948
vt 0.611801 0.505948
vt 0.611801 0.542652
vt 0.777527 0.005480
vt 0.817247 0.005480
vt 0.977109 0.295497
vt 0.817247 0.510804
vt 0.582486 0.529346
vt 0.592417 0.540014
vt 0.504774 0.519027
vt 0.518284 0.543113
vt 0.504890 0.543177
vt 0.585526 0.540080
vt 0.548421 0.541445
vt 0.566875 0.540443
vt 0.525742 0.543027
vt 0.518733 0.556107
vt 0.582628 0.567753
vt 0.562286 0.582346
vt 0.562038 0.564841
vt 0.518169 0.518963
vt 0.528984 0.518867
vt 0.529126 0.530703
vt 0.522497 0.597286
vt 0.504774 0.596992
vt 0.522109 0.594540
vt 0.542699 0.591628
vt 0.522357 0.577035
vt 0.542869 0.579621
vt 0.571146 0.529472
vt 0.545092 0.559643
vt 0.544703 0.562388
vt 0.542005 0.530259
vt 0.582247 0.602858
vt 0.562633 0.585097
vt 0.584217 0.591012
vt 0.522703 0.574284
vt 0.544287 0.568369
vt 0.562426 0.562095
vt 0.584217 0.556523
vt 0.542318 0.556523
vt 0.519833 0.557014
vt 0.582798 0.579760
vt 0.570973 0.518514
vt 0.541551 0.518704
vt 0.592439 0.506260
vt 0.640719 0.187594
vt 0.634886 0.187594
vt 0.634886 0.173632
vt 0.634886 0.258720
vt 0.646765 0.258720
vt 0.660727 0.187599
vt 0.660727 0.258720
vt 0.666773 0.329835
vt 0.666773 0.258720
vt 0.006040 0.603586
vt 0.000208 0.603586
vt 0.000218 0.518395
vt 0.660941 0.012480
vt 0.666773 0.504960
vt 0.660940 0.329835
vt 0.738783 0.517232
vt 0.664733 0.517232
vt 0.640719 0.329826
vt 0.646765 0.329826
vt 0.646765 0.343787
vt 0.323397 0.505956
vt 0.498525 0.518389
vt 0.323388 0.519919
vt 0.865950 0.517648
vt 0.950503 0.517648
vt 0.832324 0.949179
vt 0.832324 0.926495
vt 0.792902 0.761773
vt 0.792902 0.712628
vt 0.634470 0.000208
vt 0.628637 0.007209
vt 0.634470 0.007209
vt 0.628637 0.253448
vt 0.634470 0.499688
vt 0.792486 0.949179
vt 0.707933 0.949179
vt 0.634886 0.754199
vt 0.634886 0.705054
vt 0.674308 0.540332
vt 0.674308 0.517648
vt 0.000208 0.505532
vt 0.000208 0.000208
vt 0.611801 0.811982
vt 0.612250 0.505948
vt 0.977109 0.005480
vt 0.612250 0.811982
vt 0.777527 0.510804
vt 0.582472 0.518455
vt 0.592803 0.552121
vt 0.505163 0.599738
vt 0.559762 0.602367
vt 0.544287 0.602858
vt 0.518128 0.505948
vt 0.640718 0.173632
vt 0.646765 0.173632
vt 0.646765 0.187594
vt 0.634886 0.329826
vt 0.660727 0.329835
vt 0.738783 0.000208
vt 0.000218 0.505955
vt 0.006051 0.505955
vt 0.006050 0.518395
vt 0.006047 0.701218
vt 0.000215 0.701219
vt 0.664734 0.000208
vt 0.660941 0.187599
vt 0.660941 0.504960
vt 0.504344 0.603597
vt 0.504358 0.701248
vt 0.498525 0.701249
vt 0.498511 0.603597
vt 0.504358 0.518390
vt 0.504358 0.505948
vt 0.498525 0.505948
vt 0.640719 0.343787
vt 0.634886 0.343787
vt 0.252276 0.701233
vt 0.181157 0.519913
vt 0.181163 0.505953
vt 0.252283 0.519916
vn -0.0000 0.0000 1.0000
vn 0.1640 0.9865 0.0000
vn 0.0000 1.0000 0.0000
vn 0.0000 0.0000 -1.0000
vn 0.0000 -1.0000 0.0000
vn 1.0000 0.0000 0.0000
vn -1.0000 0.0000 0.0000
vn 0.1224 -0.9925 0.0000
vn 0.3849 -0.9230 0.0000
vn -0.1541 0.0000 0.9881
vn -0.1110 0.0000 -0.9938
vn -0.1541 0.0000 -0.9881
vn -0.1110 0.0000 0.9938
vn 0.0000 -0.0004 1.0000
vn 0.0000 0.0002 -1.0000
vn 0.0000 0.0007 -1.0000
vn 0.0000 -0.0002 -1.0000
vn 0.0000 0.0003 1.0000
usemtl None
s off
f 4/1/1 31/2/1 33/3/1
f 62/4/2 14/5/2 12/6/2
f 24/7/3 22/8/3 79/9/3
f 27/10/4 28/11/4 21/12/4
f 37/13/5 36/14/5 4/15/5
f 11/16/6 10/17/6 9/18/6
f 21/19/7 15/20/7 22/8/7
f 17/21/2 27/22/2 19/23/2
f 20/24/2 32/25/2 18/26/2
f 60/27/6 3/28/6 33/29/6
f 11/30/6 25/31/6 29/32/6
f 35/33/4 38/34/4 37/35/4
f 2/36/6 37/37/6 23/38/6
f 34/39/6 7/40/6 36/41/6
f 61/42/6 27/22/6 24/43/6
f 26/44/6 10/45/6 12/46/6
f 10/17/8 26/47/8 31/48/8
f 34/39/6 35/49/6 28/50/6
f 50/51/6 38/34/6 30/52/6
f 36/53/1 16/54/1 34/55/1
f 45/56/3 39/57/3 41/58/3
f 43/59/3 45/56/3 34/60/3
f 50/61/3 56/62/3 58/63/3
f 1/64/6 46/65/6 49/66/6
f 51/67/6 55/68/6 57/69/6
f 49/70/3 55/71/3 47/72/3
f 48/73/6 45/56/6 41/58/6
f 53/74/6 58/63/6 56/75/6
f 43/59/6 47/76/6 39/57/6
f 48/73/6 41/58/6 39/57/6
f 44/77/9 53/78/9 40/79/9
f 49/70/10 51/67/10 57/69/10
f 47/72/11 52/80/11 42/81/11
f 50/61/12 54/82/12 44/83/12
f 46/84/9 52/80/9 51/85/9
f 48/86/13 53/78/13 56/62/13
f 40/87/5 42/88/5 37/89/5
f 63/90/14 83/91/14 74/92/14
f 80/93/3 83/91/3 63/90/3
f 69/94/6 70/95/6 67/96/6
f 64/97/5 67/96/5 59/98/5
f 59/98/5 70/95/5 62/4/5
f 82/99/15 60/100/15 20/101/15
f 62/4/3 75/102/3 14/5/3
f 13/103/3 85/104/3 64/97/3
f 13/103/1 17/105/1 19/106/1
f 65/107/16 68/108/16 66/109/16
f 85/110/6 77/111/6 81/112/6
f 3/113/1 15/114/1 33/3/1
f 15/114/1 4/1/1 33/3/1
f 4/1/1 7/115/1 5/116/1
f 31/2/1 26/117/1 32/118/1
f 4/1/1 5/116/1 31/2/1
f 31/2/1 32/118/1 33/3/1
f 12/6/2 11/16/2 59/98/2
f 11/16/2 13/103/2 64/97/2
f 64/97/2 59/98/2 11/16/2
f 59/98/2 62/4/2 12/6/2
f 15/20/3 3/119/3 73/120/3
f 3/119/3 6/121/3 73/120/3
f 73/120/3 72/122/3 15/20/3
f 72/122/3 79/9/3 22/8/3
f 15/20/3 72/122/3 22/8/3
f 8/123/3 24/7/3 79/9/3
f 21/12/4 22/124/4 27/10/4
f 22/124/4 24/125/4 27/10/4
f 27/10/4 29/126/4 28/11/4
f 29/126/4 25/127/4 28/11/4
f 2/128/4 23/129/4 21/12/4
f 28/11/4 2/128/4 21/12/4
f 4/15/5 21/19/5 37/13/5
f 21/19/5 23/130/5 37/13/5
f 36/14/5 7/131/5 4/15/5
f 11/16/6 12/6/6 10/17/6
f 21/19/7 4/15/7 15/20/7
f 17/21/2 29/32/2 27/22/2
f 20/24/2 33/29/2 32/25/2
f 33/29/6 20/24/6 60/27/6
f 60/27/6 6/132/6 3/28/6
f 29/32/6 17/21/6 11/30/6
f 11/30/6 9/133/6 25/31/6
f 35/33/4 30/52/4 38/34/4
f 2/36/6 35/49/6 37/37/6
f 34/39/6 5/134/6 7/40/6
f 24/43/6 8/135/6 61/42/6
f 61/42/6 19/23/6 27/22/6
f 12/46/6 18/26/6 32/25/6
f 32/25/6 26/44/6 12/46/6
f 25/136/8 9/18/8 28/50/8
f 9/18/8 10/17/8 28/50/8
f 28/50/8 10/17/8 31/48/8
f 35/49/6 2/36/6 28/50/6
f 28/50/6 31/48/6 34/39/6
f 31/48/6 5/134/6 34/39/6
f 30/52/6 45/56/6 50/51/6
f 50/51/6 44/137/6 38/34/6
f 36/53/1 1/64/1 16/54/1
f 45/56/5 43/59/5 39/57/5
f 30/52/3 35/138/3 45/56/3
f 35/138/3 34/60/3 45/56/3
f 34/60/3 16/54/3 43/59/3
f 50/61/3 48/86/3 56/62/3
f 43/59/6 16/54/6 49/66/6
f 16/54/6 1/64/6 49/66/6
f 51/67/6 52/139/6 55/68/6
f 49/70/3 57/69/3 55/71/3
f 48/73/6 50/51/6 45/56/6
f 53/74/6 54/82/6 58/63/6
f 43/59/6 49/66/6 47/76/6
f 39/57/6 47/76/6 48/73/6
f 47/76/6 42/88/6 48/73/6
f 42/88/6 40/87/6 48/73/6
f 44/77/9 54/140/9 53/78/9
f 49/70/10 46/141/10 51/67/10
f 47/72/11 55/71/11 52/80/11
f 50/61/12 58/63/12 54/82/12
f 46/84/9 42/81/9 52/80/9
f 48/86/13 40/79/13 53/78/13
f 1/64/5 36/142/5 46/65/5
f 36/142/5 37/89/5 42/88/5
f 46/65/5 36/142/5 42/88/5
f 37/89/5 38/34/5 44/137/5
f 44/137/5 40/87/5 37/89/5
f 74/92/14 62/143/14 63/90/14
f 62/143/14 70/144/14 63/90/14
f 70/144/14 71/145/14 63/90/14
f 71/145/3 69/94/3 63/90/3
f 69/94/3 68/108/3 65/107/3
f 65/107/3 81/146/3 80/93/3
f 69/94/3 65/107/3 80/93/3
f 63/90/3 69/94/3 80/93/3
f 67/96/6 66/147/6 68/108/6
f 69/94/6 71/145/6 70/95/6
f 67/96/6 68/108/6 69/94/6
f 64/97/5 66/147/5 67/96/5
f 59/98/5 67/96/5 70/95/5
f 18/148/4 12/6/4 14/5/4
f 14/149/4 75/150/4 76/151/4
f 82/99/17 73/152/17 6/153/17
f 14/149/4 76/151/4 20/101/4
f 76/151/15 82/99/15 20/101/15
f 20/154/4 18/148/4 14/5/4
f 82/99/17 6/153/17 60/100/17
f 62/4/3 74/155/3 75/102/3
f 13/103/3 78/156/3 85/104/3
f 61/157/18 8/158/18 79/159/18
f 79/159/18 84/160/18 61/157/18
f 84/160/14 77/111/14 19/161/14
f 19/161/1 77/111/1 13/162/1
f 77/111/1 78/163/1 13/162/1
f 13/103/1 11/16/1 17/105/1
f 19/161/14 61/157/14 84/160/14
f 66/109/16 64/164/16 65/107/16
f 64/164/16 85/165/16 65/107/16
f 85/165/16 81/146/16 65/107/16
f 79/159/6 72/166/6 84/160/6
f 72/166/6 73/152/6 82/99/6
f 83/167/6 82/99/6 76/151/6
f 72/166/6 82/99/6 83/167/6
f 76/151/6 75/150/6 74/168/6
f 83/167/6 80/169/6 72/166/6
f 80/169/6 81/112/6 72/166/6
f 72/166/6 81/112/6 84/160/6
f 76/151/6 74/168/6 83/167/6
f 78/163/6 77/111/6 85/110/6
f 77/111/6 84/160/6 81/112/6
l 19 27
l 20 33
