# Blender v2.80 (sub 75) OBJ File: 'the_room.blend'
# www.blender.org
mtllib room.mtl
o room_Plane
v -5.608553 0.000000 6.031256
v 5.609127 0.000000 6.031256
v -5.608553 0.000000 -10.250278
v 5.608553 0.000000 -10.250278
v -5.608553 6.836755 6.031256
v 5.608553 6.836755 6.031256
v -5.608553 6.836755 -10.250278
v 5.608553 6.836755 -10.250278
v 11.653723 6.836424 10.051558
v -5.608553 6.836424 10.051558
v -5.608553 0.000000 10.051558
v -4.184200 0.000000 -10.250278
v -4.184200 6.836755 -10.250278
v 4.396532 0.000000 -10.250278
v 4.396532 6.836755 -10.250278
v -4.210533 2.654569 -10.250278
v 4.491989 2.654569 -10.250278
v -4.210533 5.385392 -10.250278
v 4.491989 5.385392 -10.250278
v -0.967651 2.654569 -10.250278
v -0.967651 5.385392 -10.250278
v 1.295939 2.654569 -10.250278
v 1.295939 5.385392 -10.250278
v -5.608553 0.000000 -3.632496
v -5.608553 6.836755 -3.632496
v -5.608553 0.000000 -9.495406
v -5.608553 6.836755 -9.542148
v -5.608553 5.932375 -3.632496
v -5.608553 5.932375 -9.495406
v -6.384895 0.000000 -3.632496
v -6.384895 0.000000 -9.495406
v -6.384895 5.932375 -3.632496
v -6.384895 5.932375 -9.495406
v -6.384895 0.000000 -10.250254
v -6.384895 5.932375 -10.250254
v -6.384895 6.835037 -3.632496
v -6.384895 6.835037 -9.542148
v -6.384895 6.835037 -10.250254
v -21.132010 0.000000 -3.632496
v -7.759697 6.835037 -10.250254
v -21.131897 0.000000 -10.250254
v -11.440661 0.000000 -10.250254
v -7.759753 0.000000 -10.250254
v -21.131784 6.835037 -10.250254
v -11.440576 6.835037 -10.250254
v -11.202475 5.387049 -10.250254
v -7.945731 5.387049 -10.250254
v -11.202495 2.655418 -10.250254
v -7.945744 2.655418 -10.250254
v -13.612844 0.000000 -10.250254
v -13.612744 6.835037 -10.250254
v -17.242598 0.000000 -10.250254
v -17.242493 6.835037 -10.250254
v -13.797653 5.387908 -10.250254
v -17.048208 5.387908 -10.250254
v -13.797678 2.656034 -10.250254
v -17.048233 2.656034 -10.250254
v 1.353793 0.000000 6.031256
v 0.954805 6.836755 6.031256
v 4.283744 0.000000 6.031256
v 4.682732 6.836755 6.031256
v 1.353793 5.200064 6.031256
v 4.283744 5.200064 6.031256
v 11.653723 0.000000 6.031256
v 11.653723 0.000000 10.051558
v 3.022585 0.000000 10.051558
v -21.132010 6.833930 -3.632496
vt 0.105114 0.749916
vt 0.105114 0.999825
vt 0.000175 0.999825
vt 0.022453 0.725040
vt 0.064369 0.725040
vt 0.000176 0.749916
vt 0.000175 0.250097
vt 0.000176 0.103870
vt 0.025298 0.094981
vt 0.000176 0.500007
vt 0.000175 0.489138
vt 0.014057 0.488420
vt 0.167174 0.385456
vt 0.272108 0.193161
vt 0.272108 0.577752
vt 0.064369 0.531154
vt 0.022453 0.531154
vt 0.022453 0.603403
vt 0.022453 0.653834
vt 0.000176 0.722913
vt 0.105114 0.722913
vt 0.064369 0.653834
vt 0.064369 0.603403
vt 0.000175 0.398429
vt 0.014057 0.398429
vt 0.451317 0.181224
vt 0.434020 0.091233
vt 0.451317 0.091233
vt 0.536586 0.652174
vt 0.627644 0.634877
vt 0.627644 0.652174
vt 0.031353 0.488420
vt 0.434020 0.000175
vt 0.451317 0.000175
vt 0.536586 0.634877
vt 0.627644 0.623291
vt 0.536586 0.623291
vt 0.522731 0.634160
vt 0.522731 0.623291
vt 0.522731 0.724868
vt 0.522731 0.294741
vt 0.627644 0.294738
vt 0.586876 0.385719
vt 0.544957 0.588517
vt 0.586885 0.588516
vt 0.522731 0.592661
vt 0.544957 0.515959
vt 0.192118 0.192810
vt 0.105465 0.091232
vt 0.272987 0.192810
vt 0.544944 0.458140
vt 0.586876 0.458139
vt 0.627644 0.592660
vt 0.586885 0.515958
vt 0.627644 0.510652
vt 0.522731 0.462260
vt 0.544944 0.385720
vt 0.000176 0.020815
vt 0.025298 0.029704
vt 0.627644 0.462257
vt 0.627644 0.381389
vt 0.299474 0.193161
vt 0.490647 0.193161
vt 0.522380 0.294739
vt 0.105465 0.443083
vt 0.167174 0.577752
vt 0.105465 0.577752
vt 0.000175 0.000188
vt 0.105465 0.413554
vt 0.105465 0.348277
vt 0.167174 0.193161
vt 0.105465 0.193161
vt 0.105115 0.094981
vt 0.105114 0.250097
vt 0.105115 0.488420
vt 0.105115 0.500007
vt 0.105115 0.531740
vt 0.000175 0.531740
vt 0.105114 0.398429
vt 0.434020 0.181224
vt 0.031353 0.398429
vt 0.536586 0.724868
vt 0.522731 0.381391
vt 0.522731 0.510654
vt 0.403389 0.192810
vt 0.434020 0.192810
vt 0.321382 0.192810
vt 0.105468 0.192810
vt 0.522380 0.193161
vt 0.522380 0.204748
vt 0.522380 0.443070
vt 0.367264 0.443070
vt 0.301987 0.443070
vt 0.272459 0.443070
vt 0.272471 0.193161
vt 0.105115 0.000175
vt 0.105115 0.029704
vt 0.522368 0.464048
vt 0.522368 0.547103
vt 0.272459 0.470424
vt 0.627994 0.193161
vt 0.638863 0.193161
vt 0.627994 0.223790
vt 0.522746 0.193163
vt 0.627641 0.193161
vt 0.522368 0.693330
vt 0.374037 0.693330
vt 0.283328 0.693330
vt 0.272459 0.661596
vt 0.272459 0.693330
vt 0.272459 0.443421
vt 0.522368 0.443421
vt 0.729572 0.193161
vt 0.729572 0.521716
vt 0.627994 0.354192
vt 0.627994 0.305798
vt 0.627994 0.521711
vt 0.627994 0.435060
vn -1.0000 -0.0001 0.0000
vn 0.0000 0.0000 1.0000
vn 0.0000 0.0000 -1.0000
vn 1.0000 0.0000 0.0000
vn 0.0000 1.0000 0.0000
vn 0.0000 -1.0000 0.0000
vn -1.0000 0.0000 0.0000
vn 0.0001 -1.0000 -0.0001
vn 0.0000 -1.0000 -0.0002
usemtl None
s off
f 4/1/1 2/2/1 6/3/1
f 19/4/2 17/5/2 8/6/2
f 5/7/3 59/8/3 62/9/3
f 7/10/4 27/11/4 29/12/4
f 66/13/3 10/14/3 9/15/3
f 16/16/2 18/17/2 7/10/2
f 21/18/2 23/19/2 15/20/2
f 14/21/2 22/22/2 20/23/2
f 29/12/4 25/24/4 28/25/4
f 28/25/4 25/24/4 5/7/4
f 22/22/2 21/18/2 20/23/2
f 26/26/5 30/27/5 24/28/5
f 29/29/2 31/30/2 26/31/2
f 28/25/6 33/32/6 29/12/6
f 24/28/3 32/33/3 28/34/3
f 33/35/7 34/36/7 31/30/7
f 35/37/7 37/38/7 38/39/7
f 33/35/7 36/40/7 37/38/7
f 44/41/2 41/42/2 57/43/2
f 47/44/2 49/45/2 35/37/2
f 40/46/2 46/47/2 47/44/2
f 52/48/5 39/49/5 50/50/5
f 54/51/2 56/52/2 46/47/2
f 43/53/2 48/54/2 42/55/2
f 51/56/2 55/57/2 54/51/2
f 62/9/3 61/58/3 63/59/3
f 50/60/2 57/43/2 52/61/2
f 14/62/5 12/63/5 24/64/5
f 2/65/5 65/66/5 64/67/5
f 6/68/3 63/59/3 61/58/3
f 2/65/5 66/13/5 65/66/5
f 60/69/5 66/13/5 2/65/5
f 58/70/5 66/13/5 60/69/5
f 58/70/5 11/71/5 66/13/5
f 1/72/5 11/71/5 58/70/5
f 4/1/7 6/3/7 8/6/7
f 17/5/2 14/21/2 4/1/2
f 4/1/2 8/6/2 17/5/2
f 8/6/2 15/20/2 19/4/2
f 62/9/3 58/73/3 1/74/3
f 1/74/3 5/7/3 62/9/3
f 29/12/4 26/75/4 3/76/4
f 3/76/4 7/10/4 29/12/4
f 10/14/3 66/13/3 11/71/3
f 66/13/3 9/15/3 65/66/3
f 7/10/2 3/76/2 16/16/2
f 3/76/2 12/77/2 16/16/2
f 18/17/2 13/78/2 7/10/2
f 13/78/2 18/17/2 21/18/2
f 23/19/2 19/4/2 15/20/2
f 13/78/2 21/18/2 15/20/2
f 16/16/2 12/77/2 20/23/2
f 12/77/2 14/21/2 20/23/2
f 14/21/2 17/5/2 22/22/2
f 29/12/4 27/11/4 25/24/4
f 5/7/4 1/74/4 28/25/4
f 1/74/4 24/79/4 28/25/4
f 22/22/2 23/19/2 21/18/2
f 26/26/5 31/80/5 30/27/5
f 29/29/2 33/35/2 31/30/2
f 28/25/6 32/81/6 33/32/6
f 24/28/3 30/27/3 32/33/3
f 33/35/7 35/37/7 34/36/7
f 35/37/7 33/35/7 37/38/7
f 33/35/7 32/82/7 36/40/7
f 41/42/2 52/61/2 57/43/2
f 57/43/2 55/57/2 44/41/2
f 55/57/2 53/83/2 44/41/2
f 34/36/2 35/37/2 49/45/2
f 35/37/2 38/39/2 40/46/2
f 34/36/2 49/45/2 43/53/2
f 40/46/2 47/44/2 35/37/2
f 40/46/2 45/84/2 46/47/2
f 30/27/5 31/80/5 43/85/5
f 31/80/5 34/86/5 43/85/5
f 43/85/5 42/87/5 30/27/5
f 42/87/5 50/50/5 30/27/5
f 41/88/5 39/49/5 52/48/5
f 39/49/5 30/27/5 50/50/5
f 50/60/2 42/55/2 56/52/2
f 42/55/2 48/54/2 56/52/2
f 48/54/2 46/47/2 56/52/2
f 46/47/2 45/84/2 54/51/2
f 45/84/2 51/56/2 54/51/2
f 43/53/2 49/45/2 48/54/2
f 51/56/2 53/83/2 55/57/2
f 62/9/3 59/8/3 61/58/3
f 50/60/2 56/52/2 57/43/2
f 3/89/5 26/90/5 12/63/5
f 26/90/5 24/64/5 12/63/5
f 24/64/5 1/91/5 58/92/5
f 60/93/5 2/94/5 14/62/5
f 2/94/5 4/95/5 14/62/5
f 24/64/5 58/92/5 14/62/5
f 58/92/5 60/93/5 14/62/5
f 63/59/3 2/96/3 60/97/3
f 2/96/3 63/59/3 6/68/3
f 61/98/6 59/99/6 15/100/6
f 38/101/6 37/102/6 40/103/6
f 41/42/4 67/104/4 39/105/4
f 5/106/6 25/107/6 59/99/6
f 25/107/6 27/108/6 13/109/6
f 59/99/6 25/107/6 15/100/6
f 27/108/6 7/110/6 13/109/6
f 15/100/6 8/111/6 61/98/6
f 8/111/6 6/112/6 61/98/6
f 13/109/6 15/100/6 25/107/6
f 37/102/6 36/113/6 40/103/6
f 36/113/8 67/114/8 51/115/8
f 40/103/6 36/113/6 45/116/6
f 67/114/9 44/117/9 53/118/9
f 51/115/6 45/116/6 36/113/6
f 67/114/9 53/118/9 51/115/9
f 41/42/4 44/41/4 67/104/4
