# Blender v2.80 (sub 75) OBJ File: 'the_room.blend'
# www.blender.org
mtllib table_small.mtl
o table_single_Cube.001
v -5.396665 1.985466 4.786176
v -5.396665 2.010743 4.786176
v -4.421438 1.985466 3.590052
v -4.421438 2.010743 3.590052
v -4.200541 1.985466 5.761403
v -4.200541 2.010743 5.761403
v -3.225314 1.985466 4.565279
v -3.225314 2.010743 4.565279
v -5.305677 1.985466 4.776919
v -4.412181 1.985466 3.681040
v -4.209797 1.985466 5.670414
v -3.316302 1.985466 4.574535
v -5.305677 1.597719 4.776919
v -4.412181 1.597719 3.681040
v -4.209797 1.597719 5.670414
v -3.316302 1.597719 4.574535
v -5.366155 1.597719 4.783072
v -4.418334 1.597719 3.620562
v -4.203645 1.597719 5.730893
v -3.255824 1.597719 4.568383
v -5.366155 1.571443 4.783072
v -4.418334 1.571443 3.620562
v -4.203645 1.571443 5.730893
v -3.255824 1.571443 4.568383
v -4.427521 1.603048 3.822067
v -4.436182 0.814763 3.757593
v -4.427521 1.603048 3.856997
v -4.436182 0.814763 3.795164
v -4.397270 1.603048 3.874463
v -4.403645 0.814763 3.813950
v -4.367020 1.603048 3.856997
v -4.371108 0.814763 3.795164
v -4.367020 1.603048 3.822067
v -4.371108 0.814763 3.757593
v -4.397270 1.603048 3.804602
v -4.403645 0.814763 3.738808
v -3.292928 0.787268 4.572157
v -4.207419 0.787268 5.693789
v -4.414559 0.787268 3.657666
v -5.329051 0.787268 4.779297
v -3.504524 1.603048 4.576404
v -3.443412 0.814763 4.568954
v -3.504524 1.603048 4.611334
v -3.443412 0.814763 4.606524
v -3.474274 1.603048 4.628799
v -3.410875 0.814763 4.625310
v -3.444023 1.603048 4.611334
v -3.378337 0.814763 4.606524
v -3.444023 1.603048 4.576404
v -3.378337 0.814763 4.568954
v -3.474274 1.603048 4.558939
v -3.410875 0.814763 4.550168
v -4.258861 1.603048 5.491987
v -4.254773 0.814763 5.553750
v -4.258861 1.603048 5.526917
v -4.254773 0.814763 5.591321
v -4.228610 1.603048 5.544383
v -4.222235 0.814763 5.610106
v -4.198359 1.603048 5.526917
v -4.189698 0.814763 5.591321
v -4.198359 1.603048 5.491987
v -4.189698 0.814763 5.553750
v -4.228610 1.603048 5.474522
v -4.222235 0.814763 5.534965
v -5.181858 1.603048 4.739503
v -5.247543 0.814763 4.744383
v -5.181858 1.603048 4.774434
v -5.247543 0.814763 4.781954
v -5.151607 1.603048 4.791899
v -5.215005 0.814763 4.800739
v -5.121356 1.603048 4.774434
v -5.182468 0.814763 4.781954
v -5.121356 1.603048 4.739503
v -5.182468 0.814763 4.744383
v -5.151607 1.603048 4.722038
v -5.215005 0.814763 4.725597
v -5.329051 0.820191 4.779297
v -4.207419 0.820191 5.693789
v -3.292928 0.820191 4.572157
v -4.414559 0.820191 3.657666
v -4.436182 0.790747 3.757593
v -4.436182 0.790747 3.795164
v -4.403645 0.790747 3.813950
v -4.371108 0.790747 3.795164
v -4.371108 0.790747 3.757593
v -4.403645 0.790747 3.738808
v -3.443412 0.790747 4.568954
v -3.443412 0.790747 4.606524
v -3.410875 0.790747 4.625310
v -3.378337 0.790747 4.606524
v -3.378337 0.790747 4.568954
v -3.410875 0.790747 4.550168
v -4.254773 0.790747 5.553750
v -4.254773 0.790747 5.591321
v -4.222235 0.790747 5.610106
v -4.189698 0.790747 5.591321
v -4.189698 0.790747 5.553750
v -4.222235 0.790747 5.534965
v -5.247543 0.790747 4.744383
v -5.247543 0.790747 4.781954
v -5.215005 0.790747 4.800739
v -5.182468 0.790747 4.781954
v -5.182468 0.790747 4.744383
v -5.215005 0.790747 4.725597
v -4.444990 -0.029598 3.692033
v -4.444990 -0.029598 3.732289
v -4.410128 -0.029598 3.752417
v -4.375265 -0.029598 3.732289
v -4.375265 -0.029598 3.692033
v -4.410128 -0.029598 3.671905
v -3.381271 -0.029598 4.561378
v -3.381271 -0.029598 4.601634
v -3.346408 -0.029598 4.621762
v -3.311545 -0.029598 4.601634
v -3.311545 -0.029598 4.561378
v -3.346408 -0.029598 4.541250
v -4.250616 -0.029598 5.616554
v -4.250616 -0.029598 5.656810
v -4.215753 -0.029598 5.676938
v -4.180890 -0.029598 5.656810
v -4.180890 -0.029598 5.616554
v -4.215753 -0.029598 5.596426
v -5.314335 -0.029598 4.749345
v -5.314335 -0.029598 4.789601
v -5.279472 -0.029598 4.809729
v -5.244610 -0.029598 4.789601
v -5.244610 -0.029598 4.749345
v -5.279472 -0.029598 4.729217
vt 0.756858 0.022273
vt 0.386551 0.015809
vt 0.756865 0.015809
vt 0.386544 0.022273
vt 0.380081 0.392580
vt 0.380081 0.022266
vt 0.386544 0.392586
vt 0.756851 0.399050
vt 0.386537 0.399050
vt 0.756858 0.392587
vt 0.763322 0.022280
vt 0.763322 0.392594
vt 0.402055 0.414568
vt 0.778839 0.377076
vt 0.364563 0.037784
vt 0.741347 0.000292
vt 0.725685 0.425484
vt 0.818888 0.765357
vt 0.725685 0.765357
vt 0.999708 0.350497
vt 0.906506 0.010624
vt 0.999708 0.010624
vt 0.779423 0.010624
vt 0.872625 0.350498
vt 0.779423 0.350498
vt 0.945970 0.765357
vt 0.852768 0.425483
vt 0.945970 0.425483
vt 0.906506 0.350497
vt 0.896173 0.000292
vt 0.872625 0.010624
vt 0.882958 0.360830
vt 0.852768 0.765357
vt 0.842435 0.415151
vt 0.818888 0.425484
vt 0.829220 0.775689
vt 0.882958 0.000292
vt 0.889274 0.360830
vt 0.842435 0.775689
vt 0.836119 0.415151
vt 0.829220 0.415151
vt 0.835536 0.775689
vt 0.896173 0.360830
vt 0.889857 0.000292
vt 0.364563 0.415151
vt 0.725101 0.775690
vt 0.364563 0.775690
vt 0.755277 0.785301
vt 0.565365 0.778175
vt 0.755500 0.776273
vt 0.754601 0.794307
vt 0.565158 0.786568
vt 0.754193 0.803329
vt 0.564529 0.794941
vt 0.564412 0.811721
vt 0.754475 0.812355
vt 0.565041 0.820094
vt 0.755151 0.821361
vt 0.565365 0.828484
vt 0.755500 0.830385
vt 0.008205 0.703926
vt 0.008205 0.356066
vt 0.356066 0.356066
vt 0.190399 0.847578
vt 0.000918 0.839815
vt 0.191017 0.838569
vt 0.190343 0.856610
vt 0.000344 0.848191
vt 0.000827 0.864966
vt 0.190919 0.865622
vt 0.001400 0.873343
vt 0.191535 0.874632
vt 0.001394 0.881739
vt 0.191528 0.883663
vt 0.001400 0.831432
vt 0.191535 0.829552
vt 0.304276 0.903269
vt 0.294619 0.713548
vt 0.303643 0.713206
vt 0.312644 0.902586
vt 0.312644 0.712471
vt 0.270724 0.902541
vt 0.258544 0.713012
vt 0.267555 0.712423
vt 0.276585 0.712585
vt 0.285595 0.713200
vt 0.279119 0.902692
vt 0.287496 0.903264
vt 0.565258 0.874761
vt 0.754778 0.867037
vt 0.755395 0.876047
vt 0.565253 0.883158
vt 0.755389 0.885078
vt 0.754878 0.839984
vt 0.565258 0.832850
vt 0.755395 0.830968
vt 0.754259 0.848994
vt 0.564777 0.841233
vt 0.754203 0.858024
vt 0.564202 0.849609
vt 0.564685 0.866385
vt 0.356066 0.348152
vt 0.008206 0.348152
vt 0.008205 0.000292
vt 0.000292 0.703926
vt 0.356066 0.703926
vt 0.363980 0.356066
vt 0.356066 0.711840
vt 0.741333 0.414568
vt 0.778839 0.037798
vt 0.364563 0.377062
vt 0.402069 0.000292
vt 0.889274 0.000292
vt 0.836119 0.775689
vt 0.835536 0.415151
vt 0.889857 0.360830
vt 0.725102 0.415151
vt 0.564149 0.803329
vt 0.000292 0.856587
vt 0.295886 0.903588
vt 0.262346 0.903089
vt 0.564149 0.858005
vt 0.356066 0.000292
vt 0.000292 0.356066
vt 0.363980 0.703926
vt 0.008205 0.711840
vt 0.257960 0.910290
vt 0.248958 0.911009
vt 0.248315 0.713243
vt 0.257960 0.712473
vt 0.000292 0.741414
vt 0.000691 0.732392
vt 0.198466 0.731747
vt 0.198038 0.741414
vt 0.001457 0.817986
vt 0.000854 0.808975
vt 0.198650 0.809638
vt 0.199295 0.819293
vt 0.364618 0.796212
vt 0.365222 0.787201
vt 0.563024 0.785934
vt 0.562377 0.795589
vt 0.000292 0.799962
vt 0.198047 0.799981
vt 0.001352 0.723385
vt 0.001569 0.714357
vt 0.199407 0.712423
vt 0.199174 0.722097
vt 0.230909 0.911003
vt 0.221898 0.910402
vt 0.219321 0.712593
vt 0.228976 0.713237
vt 0.000347 0.790931
vt 0.000951 0.781920
vt 0.198754 0.780650
vt 0.198106 0.790305
vt 0.365728 0.778184
vt 0.563566 0.776273
vt 0.001569 0.768472
vt 0.001228 0.759448
vt 0.199042 0.760736
vt 0.199407 0.770406
vt 0.365728 0.823267
vt 0.365126 0.814256
vt 0.562921 0.814923
vt 0.563566 0.824577
vt 0.212868 0.910244
vt 0.203855 0.910819
vt 0.199990 0.713039
vt 0.209646 0.712423
vt 0.000568 0.750441
vt 0.198334 0.751086
vt 0.001451 0.827017
vt 0.199290 0.828969
vt 0.364563 0.805242
vt 0.562318 0.805265
vt 0.239933 0.911343
vt 0.238646 0.713601
vt 0.365721 0.832298
vt 0.563560 0.834253
vt 0.001457 0.772904
vt 0.199295 0.770989
vn -0.7750 0.0000 -0.6319
vn 0.6319 0.0000 -0.7750
vn 0.7750 0.0000 0.6319
vn -0.6319 0.0000 0.7750
vn 0.0000 -1.0000 0.0000
vn 0.0000 1.0000 0.0000
vn -0.4986 0.0761 -0.8635
vn -0.9999 0.0110 0.0000
vn -0.4990 -0.0623 0.8643
vn 0.4988 -0.0703 0.8639
vn 1.0000 -0.0052 0.0000
vn 0.4988 0.0681 -0.8640
vn -0.4998 -0.0306 -0.8656
vn -0.9970 -0.0773 0.0000
vn -0.4995 -0.0440 0.8652
vn 0.4997 0.0364 0.8655
vn 0.9965 0.0830 0.0000
vn 0.4994 0.0498 -0.8650
vn -0.4987 -0.0703 -0.8639
vn -1.0000 -0.0052 0.0000
vn -0.4988 0.0680 0.8640
vn 0.4985 0.0760 0.8635
vn 0.9999 0.0110 0.0000
vn 0.4990 -0.0622 -0.8644
vn -0.4997 0.0363 -0.8655
vn -0.9965 0.0830 0.0000
vn -0.4994 0.0499 0.8650
vn 0.4998 -0.0305 0.8656
vn 0.9970 -0.0773 0.0000
vn 0.4995 -0.0441 -0.8652
vn 0.4988 -0.0704 0.8639
vn 0.4997 0.0364 0.8654
vn 0.4994 0.0498 -0.8649
vn -0.4988 -0.0703 -0.8639
vn -0.4989 0.0680 0.8640
vn 0.4986 0.0760 0.8635
vn -1.0000 -0.0051 0.0000
vn -0.4991 -0.0609 0.8644
vn -0.4997 0.0354 -0.8655
vn -0.4998 -0.0299 -0.8656
vn 0.4995 -0.0431 -0.8652
vn -0.4986 0.0744 -0.8636
vn 0.9999 0.0107 0.0000
vn 0.4998 -0.0298 0.8656
vn 0.4994 0.0486 -0.8650
vn 0.4989 0.0665 -0.8641
vn 0.4997 0.0355 0.8655
vn -0.4989 0.0665 0.8641
vn 0.4988 -0.0687 0.8640
vn -0.9967 0.0812 0.0000
vn -0.9971 -0.0755 0.0000
vn -0.9999 0.0107 0.0000
vn -0.4988 -0.0687 -0.8640
vn 0.9971 -0.0755 0.0000
vn 0.4991 -0.0608 -0.8644
vn 0.9967 0.0812 0.0000
vn 0.4986 0.0743 0.8636
vn 1.0000 -0.0051 0.0000
vn -0.4994 0.0487 0.8650
vn -0.4995 -0.0430 0.8652
usemtl None
s off
f 2/1/1 3/2/1 1/3/1
f 4/4/2 7/5/2 3/6/2
f 8/7/3 5/8/3 7/9/3
f 6/10/4 1/11/4 5/12/4
f 5/8/5 12/13/5 7/9/5
f 4/4/6 6/10/6 8/7/6
f 1/11/5 11/14/5 5/12/5
f 7/5/5 10/15/5 3/6/5
f 3/2/5 9/16/5 1/3/5
f 11/17/3 16/18/3 12/19/3
f 10/20/1 13/21/1 9/22/1
f 9/23/4 15/24/4 11/25/4
f 12/26/2 14/27/2 10/28/2
f 14/29/6 17/30/6 13/21/6
f 13/31/6 19/32/6 15/24/6
f 16/33/6 18/34/6 14/27/6
f 15/35/6 20/36/6 16/18/6
f 17/37/4 23/38/4 19/32/4
f 20/39/2 22/40/2 18/34/2
f 19/41/3 24/42/3 20/36/3
f 18/43/1 21/44/1 17/30/1
f 24/45/5 21/46/5 22/47/5
f 26/48/7 35/49/7 36/50/7
f 28/51/8 25/52/8 26/48/8
f 30/53/9 27/54/9 28/51/9
f 31/55/10 30/53/10 32/56/10
f 33/57/11 32/56/11 34/58/11
f 35/59/12 34/58/12 36/60/12
f 40/61/5 39/62/5 37/63/5
f 42/64/13 51/65/13 52/66/13
f 44/67/14 41/68/14 42/64/14
f 45/69/15 44/67/15 46/70/15
f 47/71/16 46/70/16 48/72/16
f 49/73/17 48/72/17 50/74/17
f 52/66/18 49/75/18 50/76/18
f 53/77/19 64/78/19 54/79/19
f 55/80/20 54/79/20 56/81/20
f 57/82/21 56/83/21 58/84/21
f 60/85/22 57/82/22 58/84/22
f 62/86/23 59/87/23 60/85/23
f 64/78/24 61/88/24 62/86/24
f 65/89/25 76/90/25 66/91/25
f 67/92/26 66/91/26 68/93/26
f 70/94/27 67/95/27 68/96/27
f 72/97/28 69/98/28 70/94/28
f 74/99/29 71/100/29 72/97/29
f 75/101/30 74/99/30 76/90/30
f 79/102/6 80/103/6 77/104/6
f 39/62/1 40/61/1 77/105/1
f 38/106/3 37/63/3 79/107/3
f 37/63/2 39/62/2 80/103/2
f 40/61/4 38/106/4 78/108/4
f 2/1/1 4/4/1 3/2/1
f 4/4/2 8/7/2 7/5/2
f 8/7/3 6/10/3 5/8/3
f 6/10/4 2/1/4 1/11/4
f 5/8/5 11/109/5 12/13/5
f 4/4/6 2/1/6 6/10/6
f 1/11/5 9/110/5 11/14/5
f 7/5/5 12/111/5 10/15/5
f 3/2/5 10/112/5 9/16/5
f 11/17/3 15/35/3 16/18/3
f 10/20/1 14/29/1 13/21/1
f 9/23/4 13/31/4 15/24/4
f 12/26/2 16/33/2 14/27/2
f 14/29/6 18/43/6 17/30/6
f 13/31/6 17/37/6 19/32/6
f 16/33/6 20/39/6 18/34/6
f 15/35/6 19/41/6 20/36/6
f 17/37/4 21/113/4 23/38/4
f 20/39/2 24/114/2 22/40/2
f 19/41/3 23/115/3 24/42/3
f 18/43/1 22/116/1 21/44/1
f 24/45/5 23/117/5 21/46/5
f 26/48/7 25/52/7 35/49/7
f 28/51/8 27/54/8 25/52/8
f 30/53/9 29/118/9 27/54/9
f 31/55/31 29/118/31 30/53/31
f 33/57/11 31/55/11 32/56/11
f 35/59/12 33/57/12 34/58/12
f 40/61/5 37/63/5 38/106/5
f 42/64/13 41/68/13 51/65/13
f 44/67/14 43/119/14 41/68/14
f 45/69/15 43/119/15 44/67/15
f 47/71/32 45/69/32 46/70/32
f 49/73/17 47/71/17 48/72/17
f 52/66/33 51/65/33 49/75/33
f 53/77/34 63/120/34 64/78/34
f 55/80/20 53/77/20 54/79/20
f 57/82/35 55/121/35 56/83/35
f 60/85/36 59/87/36 57/82/36
f 62/86/23 61/88/23 59/87/23
f 64/78/24 63/120/24 61/88/24
f 65/89/25 75/101/25 76/90/25
f 67/92/26 65/89/26 66/91/26
f 70/94/27 69/98/27 67/95/27
f 72/97/28 71/100/28 69/98/28
f 74/99/29 73/122/29 71/100/29
f 75/101/30 73/122/30 74/99/30
f 79/102/6 77/104/6 78/123/6
f 39/62/1 77/105/1 80/124/1
f 38/106/3 79/107/3 78/125/3
f 37/63/2 80/103/2 79/102/2
f 40/61/4 78/108/4 77/126/4
f 94/127/37 93/128/37 117/129/37 118/130/37
f 83/131/38 82/132/38 106/133/38 107/134/38
f 99/135/39 104/136/39 128/137/39 123/138/39
f 87/139/40 92/140/40 116/141/40 111/142/40
f 104/136/41 103/143/41 127/144/41 128/137/41
f 81/145/42 86/146/42 110/147/42 105/148/42
f 97/149/43 96/150/43 120/151/43 121/152/43
f 102/153/44 101/154/44 125/155/44 126/156/44
f 92/140/45 91/157/45 115/158/45 116/141/45
f 86/159/46 85/160/46 109/161/46 110/162/46
f 90/163/47 89/164/47 113/165/47 114/166/47
f 95/167/48 94/168/48 118/169/48 119/170/48
f 84/171/49 83/131/49 107/134/49 108/172/49
f 100/173/50 99/135/50 123/138/50 124/174/50
f 88/175/51 87/139/51 111/142/51 112/176/51
f 82/132/52 81/145/52 105/148/52 106/133/52
f 93/128/53 98/177/53 122/178/53 117/129/53
f 103/143/54 102/153/54 126/156/54 127/144/54
f 98/177/55 97/149/55 121/152/55 122/178/55
f 91/179/56 90/163/56 114/166/56 115/180/56
f 96/150/57 95/167/57 119/170/57 120/151/57
f 85/160/58 84/171/58 108/172/58 109/161/58
f 101/154/59 100/181/59 124/182/59 125/155/59
f 89/164/60 88/175/60 112/176/60 113/165/60
