# Blender v2.80 (sub 75) OBJ File: 'the_room.blend'
# www.blender.org
mtllib window.mtl
o window.001_Cube.006
v 4.590116 5.428311 -10.122872
v 4.590115 2.615758 -10.122873
v 4.590116 5.428311 -10.377667
v 4.590115 2.615758 -10.377667
v 1.204323 5.428312 -10.122872
v 1.204323 2.615759 -10.122872
v 1.204323 5.428312 -10.377667
v 1.204323 2.615759 -10.377667
v 4.444199 5.342214 -10.371675
v 4.444199 5.342214 -10.128865
v 4.444198 2.701856 -10.128866
v 4.444198 2.701856 -10.371675
v 1.350240 5.342215 -10.371675
v 1.350240 2.701856 -10.371675
v 1.350240 5.342215 -10.128865
v 1.350240 2.701856 -10.128865
v 2.826358 2.701856 -10.371675
v 2.968080 2.701856 -10.128865
v 2.968080 2.701856 -10.371675
v 2.826358 2.701856 -10.128865
v 2.968081 5.342214 -10.371675
v 2.826358 5.342214 -10.128865
v 2.826358 5.342214 -10.371675
v 2.968081 5.342214 -10.128865
v 2.959998 2.776418 -10.165480
v 2.959998 2.974087 -10.347851
v 2.959998 2.787756 -10.153191
v 2.959998 2.985425 -10.335562
v 4.451555 2.776418 -10.165480
v 4.451555 2.974087 -10.347851
v 4.451555 2.787756 -10.153191
v 4.451555 2.985425 -10.335562
v 2.959998 3.039748 -10.165480
v 2.959998 3.237418 -10.347851
v 2.959998 3.051086 -10.153191
v 2.959998 3.248756 -10.335561
v 4.451555 3.039748 -10.165480
v 4.451555 3.237418 -10.347851
v 4.451555 3.051086 -10.153191
v 4.451555 3.248756 -10.335562
v 2.959998 3.316245 -10.165480
v 2.959998 3.513915 -10.347851
v 2.959998 3.327583 -10.153191
v 2.959998 3.525253 -10.335561
v 4.451555 3.316245 -10.165480
v 4.451555 3.513915 -10.347851
v 4.451555 3.327583 -10.153191
v 4.451555 3.525253 -10.335562
v 2.959998 3.559826 -10.165480
v 2.959998 3.757495 -10.347850
v 2.959998 3.571164 -10.153191
v 2.959998 3.768834 -10.335561
v 4.451555 3.559826 -10.165480
v 4.451555 3.757495 -10.347851
v 4.451555 3.571164 -10.153191
v 4.451555 3.768833 -10.335562
v 2.959998 3.804410 -10.165480
v 2.959998 4.002079 -10.347850
v 2.959998 3.815748 -10.153191
v 2.959998 4.013417 -10.335561
v 4.451555 3.804409 -10.165480
v 4.451555 4.002079 -10.347851
v 4.451555 3.815747 -10.153191
v 4.451555 4.013417 -10.335561
v 2.959998 4.560482 -10.165480
v 2.959998 4.758151 -10.347850
v 2.959998 4.571820 -10.153190
v 2.959998 4.769489 -10.335561
v 4.451555 4.560481 -10.165480
v 4.451555 4.758151 -10.347850
v 4.451555 4.571819 -10.153191
v 4.451555 4.769489 -10.335561
v 2.959998 4.817228 -10.165480
v 2.959998 5.014898 -10.347850
v 2.959998 4.828567 -10.153190
v 2.959998 5.026236 -10.335561
v 4.451555 4.817228 -10.165480
v 4.451555 5.014898 -10.347850
v 4.451555 4.828567 -10.153191
v 4.451555 5.026236 -10.335561
v 2.959998 5.083851 -10.165479
v 2.959998 5.281520 -10.347850
v 2.959998 5.095189 -10.153190
v 2.959998 5.292858 -10.335561
v 4.451555 5.083850 -10.165480
v 4.451555 5.281520 -10.347850
v 4.451555 5.095189 -10.153191
v 4.451555 5.292858 -10.335561
v 1.344355 2.829021 -10.145138
v 1.344356 2.916971 -10.358849
v 1.344356 2.844484 -10.138774
v 1.344356 2.932434 -10.352485
v 2.835913 2.829021 -10.145138
v 2.835913 2.916971 -10.358849
v 2.835913 2.844483 -10.138774
v 2.835913 2.932433 -10.352485
v 1.344356 3.090942 -10.145137
v 1.344356 3.178892 -10.358849
v 1.344356 3.106405 -10.138774
v 1.344356 3.194354 -10.352485
v 2.835913 3.090942 -10.145138
v 2.835913 3.178892 -10.358849
v 2.835913 3.106404 -10.138774
v 2.835913 3.194354 -10.352485
v 1.344356 3.857656 -10.145137
v 1.344356 3.945606 -10.358848
v 1.344356 3.873119 -10.138774
v 1.344356 3.961068 -10.352485
v 2.835913 3.857656 -10.145137
v 2.835913 3.945606 -10.358849
v 2.835913 3.873118 -10.138774
v 2.835913 3.961068 -10.352485
v 1.344356 4.108465 -10.145137
v 1.344356 4.196415 -10.358848
v 1.344356 4.123928 -10.138774
v 1.344356 4.211877 -10.352485
v 2.835913 4.108465 -10.145137
v 2.835913 4.196414 -10.358848
v 2.835913 4.123927 -10.138774
v 2.835913 4.211877 -10.352485
v 1.344356 4.362449 -10.145137
v 1.344356 4.450398 -10.358848
v 1.344356 4.377911 -10.138774
v 1.344356 4.465861 -10.352485
v 2.835913 4.362449 -10.145137
v 2.835913 4.450398 -10.358848
v 2.835913 4.377911 -10.138774
v 2.835913 4.465861 -10.352485
v 1.344356 4.611670 -10.145137
v 1.344356 4.699620 -10.358848
v 1.344356 4.627133 -10.138774
v 1.344356 4.715083 -10.352485
v 2.835913 4.611670 -10.145137
v 2.835913 4.699620 -10.358848
v 2.835913 4.627132 -10.138774
v 2.835913 4.715082 -10.352485
v 1.344356 5.133924 -10.145137
v 1.344356 5.221874 -10.358848
v 1.344356 5.149387 -10.138774
v 1.344356 5.237337 -10.352485
v 2.835913 5.133924 -10.145137
v 2.835913 5.221874 -10.358848
v 2.835913 5.149387 -10.138774
v 2.835913 5.237337 -10.352485
vt 0.279534 0.430866
vt 0.000389 0.571791
vt 0.000389 0.430866
vt 0.280313 0.063508
vt 0.546327 0.195805
vt 0.280313 0.195805
vt 0.000389 0.286090
vt 0.279534 0.145165
vt 0.279534 0.286090
vt 0.280313 0.455118
vt 0.546327 0.587415
vt 0.280313 0.587415
vt 0.000389 0.145165
vt 0.279534 0.000389
vt 0.546327 0.258923
vt 0.280313 0.258923
vt 0.546327 0.455118
vt 0.280313 0.391999
vt 0.546327 0.391999
vt 0.129504 0.880942
vt 0.138438 0.741077
vt 0.138945 0.873067
vt 0.276889 0.722883
vt 0.267664 0.581215
vt 0.276889 0.572569
vt 0.203519 0.582807
vt 0.196337 0.583184
vt 0.129505 0.577766
vt 0.277127 0.728858
vt 0.267761 0.873599
vt 0.267055 0.737779
vt 0.202065 0.738967
vt 0.194906 0.739306
vt 0.129701 0.733714
vt 0.202874 0.717841
vt 0.210057 0.717464
vt 0.138729 0.719433
vt 0.129504 0.728079
vt 0.197049 0.873610
vt 0.204252 0.873792
vt 0.280313 0.000389
vt 0.546327 0.063508
vt 0.546327 0.650533
vt 0.280313 0.391220
vt 0.546327 0.391220
vt 0.280313 0.650533
vt 0.546327 0.782830
vt 0.280313 0.782830
vt 0.805336 0.497025
vt 0.869115 0.697070
vt 0.805336 0.697070
vt 0.064947 0.586045
vt 0.128726 0.786090
vt 0.064947 0.786090
vt 0.869115 0.910590
vt 0.805336 0.710545
vt 0.869115 0.710545
vt 0.128726 0.999611
vt 0.064947 0.799566
vt 0.128726 0.799566
vt 0.128726 0.572569
vt 0.128726 0.586045
vt 0.869115 0.483549
vt 0.869115 0.497025
vt 0.000389 0.586045
vt 0.064168 0.786090
vt 0.000389 0.786090
vt 0.064168 0.999611
vt 0.000389 0.799566
vt 0.064168 0.799566
vt 0.064168 0.572569
vt 0.064168 0.586045
vt 0.693879 0.912724
vt 0.493834 0.976502
vt 0.493834 0.912724
vt 0.280313 0.976503
vt 0.480358 0.912724
vt 0.480358 0.976502
vt 0.707354 0.976503
vt 0.693879 0.976503
vt 0.934451 0.013865
vt 0.998230 0.213910
vt 0.934451 0.213910
vt 0.998230 0.427431
vt 0.934451 0.227386
vt 0.998230 0.227386
vt 0.998230 0.000389
vt 0.998230 0.013865
vt 0.934451 0.441685
vt 0.998230 0.641730
vt 0.934451 0.641730
vt 0.998230 0.855251
vt 0.934451 0.655206
vt 0.998230 0.655206
vt 0.998230 0.428209
vt 0.998230 0.441685
vt 0.869894 0.497025
vt 0.933672 0.697070
vt 0.869894 0.697070
vt 0.933673 0.910590
vt 0.869894 0.710545
vt 0.933672 0.710545
vt 0.933673 0.483549
vt 0.933673 0.497025
vt 0.693879 0.848166
vt 0.493834 0.911945
vt 0.493834 0.848166
vt 0.280313 0.911945
vt 0.480358 0.848166
vt 0.480358 0.911945
vt 0.707354 0.911945
vt 0.693879 0.911945
vt 0.740000 0.475756
vt 0.676221 0.241580
vt 0.740000 0.241580
vt 0.676221 0.000389
vt 0.740000 0.234565
vt 0.676221 0.234565
vt 0.676221 0.482770
vt 0.676221 0.475756
vt 0.933673 0.475756
vt 0.869894 0.241580
vt 0.933673 0.241580
vt 0.869894 0.000389
vt 0.933673 0.234565
vt 0.869894 0.234565
vt 0.869894 0.482770
vt 0.869894 0.475756
vt 0.804558 0.475756
vt 0.740779 0.241580
vt 0.804558 0.241580
vt 0.740779 0.000389
vt 0.804558 0.234565
vt 0.740779 0.234565
vt 0.740779 0.482770
vt 0.740779 0.475756
vt 0.869115 0.475756
vt 0.805336 0.241580
vt 0.869115 0.241580
vt 0.805336 0.000389
vt 0.869115 0.234565
vt 0.805336 0.234565
vt 0.805336 0.482770
vt 0.805336 0.475756
vt 0.547106 0.007404
vt 0.610885 0.241580
vt 0.547106 0.241580
vt 0.610885 0.482770
vt 0.547106 0.248594
vt 0.610885 0.248594
vt 0.610885 0.000389
vt 0.610885 0.007404
vt 0.611664 0.007404
vt 0.675442 0.241580
vt 0.611664 0.241580
vt 0.675442 0.482770
vt 0.611664 0.248594
vt 0.675442 0.248594
vt 0.675442 0.000389
vt 0.675442 0.007404
vt 0.755680 0.783609
vt 0.521503 0.847387
vt 0.521503 0.783609
vt 0.280313 0.847387
vt 0.514489 0.783609
vt 0.514489 0.847387
vt 0.762694 0.847387
vt 0.755680 0.847387
vt 0.279534 0.571791
vt 0.000389 0.000389
vt 0.267346 0.715288
vt 0.139048 0.585360
vt 0.277127 0.881971
vt 0.546327 0.000389
vt 0.805336 0.910590
vt 0.064947 0.999611
vt 0.064947 0.572569
vt 0.805336 0.483549
vt 0.000389 0.999611
vt 0.000389 0.572569
vt 0.280313 0.912724
vt 0.707354 0.912724
vt 0.934451 0.427431
vt 0.934451 0.000389
vt 0.934451 0.855251
vt 0.934451 0.428209
vt 0.869894 0.910590
vt 0.869894 0.483549
vt 0.280313 0.848166
vt 0.707354 0.848166
vt 0.740000 0.000389
vt 0.740000 0.482770
vt 0.933673 0.000389
vt 0.933673 0.482770
vt 0.804558 0.000389
vt 0.804558 0.482770
vt 0.869115 0.000389
vt 0.869115 0.482770
vt 0.547106 0.482770
vt 0.547106 0.000389
vt 0.611664 0.482770
vt 0.611664 0.000389
vt 0.280313 0.783609
vt 0.762694 0.783609
vn -1.0000 0.0000 0.0000
vn 1.0000 -0.0000 0.0000
vn -0.0000 -1.0000 0.0000
vn 0.0000 1.0000 0.0000
vn 0.0410 -0.0000 0.9992
vn 0.0410 0.0000 -0.9992
vn 0.0000 0.0694 -0.9976
vn -0.0410 0.0000 0.9992
vn 0.0000 0.0694 0.9976
vn 0.0000 -0.0694 -0.9976
vn -0.0410 0.0000 -0.9992
vn 0.0000 -0.0694 0.9976
vn 0.0000 -0.0000 1.0000
vn 0.0000 0.0000 -1.0000
vn 0.0000 -0.6781 -0.7350
vn 0.0000 0.6781 0.7350
vn 0.0000 0.7350 -0.6781
vn 0.0000 -0.7350 0.6781
vn -0.0000 -0.9248 -0.3806
vn 0.0000 0.9248 0.3806
vn 0.0000 0.3806 -0.9247
vn 0.0000 -0.3806 0.9247
vn 0.0000 0.3806 -0.9248
vn 0.0000 -0.3806 0.9248
vn 0.0000 0.3805 -0.9248
vn 0.0000 -0.3805 0.9248
vn 0.0000 0.7349 -0.6781
usemtl None
s off
f 3/1/1 2/2/1 1/3/1
f 14/4/1 15/5/1 13/6/1
f 5/7/2 8/8/2 7/9/2
f 11/10/2 9/11/2 10/12/2
f 1/3/3 7/9/3 3/1/3
f 6/13/4 4/14/4 8/8/4
f 13/6/4 22/15/4 23/16/4
f 12/17/3 18/18/3 19/19/3
f 4/20/5 9/21/5 12/22/5
f 2/23/6 10/24/6 1/25/6
f 24/26/7 22/27/7 5/28/7
f 7/29/8 14/30/8 13/31/8
f 23/32/9 21/33/9 3/34/9
f 20/35/10 18/36/10 2/23/10
f 5/28/11 16/37/11 6/38/11
f 4/20/12 19/39/12 17/40/12
f 17/41/3 16/42/3 14/4/3
f 21/43/4 10/12/4 9/11/4
f 21/33/13 17/40/13 19/39/13
f 17/44/2 22/15/2 20/45/2
f 24/46/1 19/47/1 18/48/1
f 22/27/14 18/36/14 20/35/14
f 36/49/15 39/50/15 35/51/15
f 28/52/15 31/53/15 27/54/15
f 38/55/16 33/56/16 37/57/16
f 30/58/16 25/59/16 29/60/16
f 31/53/17 25/59/17 27/54/17
f 28/52/18 30/61/18 32/62/18
f 39/50/17 33/56/17 35/51/17
f 36/49/18 38/63/18 40/64/18
f 44/65/15 47/66/15 43/67/15
f 46/68/16 41/69/16 45/70/16
f 47/66/17 41/69/17 43/67/17
f 44/65/18 46/71/18 48/72/18
f 52/73/15 55/74/15 51/75/15
f 54/76/16 49/77/16 53/78/16
f 55/74/17 49/77/17 51/75/17
f 52/73/18 54/79/18 56/80/18
f 60/81/15 63/82/15 59/83/15
f 62/84/16 57/85/16 61/86/16
f 63/82/17 57/85/17 59/83/17
f 60/81/18 62/87/18 64/88/18
f 68/89/15 71/90/15 67/91/15
f 70/92/16 65/93/16 69/94/16
f 71/90/17 65/93/17 67/91/17
f 68/89/18 70/95/18 72/96/18
f 76/97/15 79/98/15 75/99/15
f 78/100/16 73/101/16 77/102/16
f 79/98/17 73/101/17 75/99/17
f 76/97/18 78/103/18 80/104/18
f 84/105/15 87/106/15 83/107/15
f 86/108/16 81/109/16 85/110/16
f 87/106/17 81/109/17 83/107/17
f 84/105/18 86/111/18 88/112/18
f 92/113/19 95/114/19 91/115/19
f 94/116/20 89/117/20 93/118/20
f 95/114/21 89/117/21 91/115/21
f 92/113/22 94/119/22 96/120/22
f 100/121/19 103/122/19 99/123/19
f 102/124/20 97/125/20 101/126/20
f 103/122/23 97/125/23 99/123/23
f 100/121/22 102/127/22 104/128/22
f 108/129/19 111/130/19 107/131/19
f 110/132/20 105/133/20 109/134/20
f 111/130/23 105/133/23 107/131/23
f 108/129/22 110/135/22 112/136/22
f 116/137/19 119/138/19 115/139/19
f 118/140/20 113/141/20 117/142/20
f 119/138/23 113/141/23 115/139/23
f 116/137/24 118/143/24 120/144/24
f 124/145/19 127/146/19 123/147/19
f 126/148/20 121/149/20 125/150/20
f 127/146/23 121/149/23 123/147/23
f 124/145/24 126/151/24 128/152/24
f 132/153/19 135/154/19 131/155/19
f 134/156/20 129/157/20 133/158/20
f 135/154/23 129/157/23 131/155/23
f 132/153/24 134/159/24 136/160/24
f 140/161/19 143/162/19 139/163/19
f 142/164/20 137/165/20 141/166/20
f 143/162/25 137/165/25 139/163/25
f 140/161/26 142/167/26 144/168/26
f 3/1/1 4/169/1 2/2/1
f 14/4/1 16/42/1 15/5/1
f 5/7/2 6/13/2 8/8/2
f 11/10/2 12/17/2 9/11/2
f 1/3/3 5/7/3 7/9/3
f 6/13/4 2/170/4 4/14/4
f 13/6/4 15/5/4 22/15/4
f 12/17/3 11/10/3 18/18/3
f 4/20/5 3/34/5 9/21/5
f 2/23/6 11/171/6 10/24/6
f 15/172/7 5/28/7 22/27/7
f 5/28/7 1/25/7 24/26/7
f 1/25/7 10/24/7 24/26/7
f 7/29/8 8/173/8 14/30/8
f 9/21/9 3/34/9 21/33/9
f 3/34/9 7/29/9 23/32/9
f 7/29/9 13/31/9 23/32/9
f 11/171/10 2/23/10 18/36/10
f 2/23/10 6/38/10 20/35/10
f 6/38/10 16/37/10 20/35/10
f 5/28/11 15/172/11 16/37/11
f 14/30/12 8/173/12 17/40/12
f 8/173/12 4/20/12 17/40/12
f 4/20/12 12/22/12 19/39/12
f 17/41/3 20/174/3 16/42/3
f 21/43/4 24/46/4 10/12/4
f 21/33/13 23/32/13 17/40/13
f 17/44/2 23/16/2 22/15/2
f 24/46/1 21/43/1 19/47/1
f 22/27/14 24/26/14 18/36/14
f 36/49/15 40/64/15 39/50/15
f 28/52/15 32/62/15 31/53/15
f 38/55/16 34/175/16 33/56/16
f 30/58/16 26/176/16 25/59/16
f 31/53/17 29/60/17 25/59/17
f 28/52/18 26/177/18 30/61/18
f 39/50/17 37/57/17 33/56/17
f 36/49/18 34/178/18 38/63/18
f 44/65/15 48/72/15 47/66/15
f 46/68/16 42/179/16 41/69/16
f 47/66/17 45/70/17 41/69/17
f 44/65/18 42/180/18 46/71/18
f 52/73/15 56/80/15 55/74/15
f 54/76/16 50/181/16 49/77/16
f 55/74/17 53/78/17 49/77/17
f 52/73/18 50/182/18 54/79/18
f 60/81/15 64/88/15 63/82/15
f 62/84/16 58/183/16 57/85/16
f 63/82/17 61/86/17 57/85/17
f 60/81/18 58/184/18 62/87/18
f 68/89/15 72/96/15 71/90/15
f 70/92/16 66/185/16 65/93/16
f 71/90/27 69/94/27 65/93/27
f 68/89/18 66/186/18 70/95/18
f 76/97/15 80/104/15 79/98/15
f 78/100/16 74/187/16 73/101/16
f 79/98/17 77/102/17 73/101/17
f 76/97/18 74/188/18 78/103/18
f 84/105/15 88/112/15 87/106/15
f 86/108/16 82/189/16 81/109/16
f 87/106/17 85/110/17 81/109/17
f 84/105/18 82/190/18 86/111/18
f 92/113/19 96/120/19 95/114/19
f 94/116/20 90/191/20 89/117/20
f 95/114/21 93/118/21 89/117/21
f 92/113/22 90/192/22 94/119/22
f 100/121/19 104/128/19 103/122/19
f 102/124/20 98/193/20 97/125/20
f 103/122/21 101/126/21 97/125/21
f 100/121/22 98/194/22 102/127/22
f 108/129/19 112/136/19 111/130/19
f 110/132/20 106/195/20 105/133/20
f 111/130/25 109/134/25 105/133/25
f 108/129/26 106/196/26 110/135/26
f 116/137/19 120/144/19 119/138/19
f 118/140/20 114/197/20 113/141/20
f 119/138/23 117/142/23 113/141/23
f 116/137/24 114/198/24 118/143/24
f 124/145/19 128/152/19 127/146/19
f 126/148/20 122/199/20 121/149/20
f 127/146/25 125/150/25 121/149/25
f 124/145/26 122/200/26 126/151/26
f 132/153/19 136/160/19 135/154/19
f 134/156/20 130/201/20 129/157/20
f 135/154/23 133/158/23 129/157/23
f 132/153/24 130/202/24 134/159/24
f 140/161/19 144/168/19 143/162/19
f 142/164/20 138/203/20 137/165/20
f 143/162/25 141/166/25 137/165/25
f 140/161/26 138/204/26 142/167/26
