# Blender v2.80 (sub 75) OBJ File: 'the_room.blend'
# www.blender.org
mtllib book008.mtl
o book.008_Cube.007
v -4.601757 2.639668 -9.835245
v -5.395720 2.637388 -9.570895
v -4.398585 2.639822 -9.225028
v -5.192548 2.637542 -8.960677
v -4.601429 2.516479 -9.835323
v -5.395392 2.514200 -9.570972
v -4.398258 2.516634 -9.225106
v -5.192221 2.514354 -8.960755
vt 0.015065 0.991035
vt 0.598448 0.542665
vt 0.598447 0.991035
vt 0.015065 0.542665
vt 0.598448 0.456785
vt 0.015065 0.456785
vt 0.598448 0.008416
vt 0.807497 0.010984
vt 0.890690 0.576113
vt 0.807497 0.576113
vt 0.908925 0.445228
vt 0.992118 0.010889
vt 0.992118 0.445228
vt 0.908917 0.445248
vt 0.992110 0.010909
vt 0.992110 0.445248
vt 0.015065 0.008416
vt 0.890690 0.010984
vt 0.908925 0.010889
vt 0.908917 0.010909
vn -0.0027 1.0000 0.0006
vn 0.3159 0.0002 0.9488
vn 0.0027 -1.0000 -0.0006
vn -0.3159 -0.0002 -0.9488
vn 0.9488 0.0027 -0.3159
vn -0.9488 -0.0027 0.3159
usemtl None
s off
f 2/1/1 3/2/1 1/3/1
f 4/4/2 7/5/2 3/2/2
f 8/6/3 5/7/3 7/5/3
f 6/8/4 1/9/4 5/10/4
f 7/11/5 1/12/5 3/13/5
f 4/14/6 6/15/6 8/16/6
f 2/1/1 4/4/1 3/2/1
f 4/4/2 8/6/2 7/5/2
f 8/6/3 6/17/3 5/7/3
f 6/8/4 2/18/4 1/9/4
f 7/11/5 5/19/5 1/12/5
f 4/14/6 2/20/6 6/15/6
