# Blender v2.80 (sub 75) OBJ File: 'the_room.blend'
# www.blender.org
mtllib book002.mtl
o book.002_Cube.007
v 3.413148 2.276477 -9.454831
v 3.724252 3.052922 -9.430098
v 3.464119 2.276477 -10.095960
v 3.775223 3.052922 -10.071226
v 3.527090 2.230535 -9.445772
v 3.838193 3.006979 -9.421039
v 3.578061 2.230535 -10.086901
v 3.889164 3.006979 -10.062167
vt 0.015065 0.991035
vt 0.598448 0.542665
vt 0.598447 0.991035
vt 0.015065 0.542665
vt 0.598448 0.456785
vt 0.015065 0.456785
vt 0.598448 0.008416
vt 0.807497 0.010984
vt 0.890690 0.576113
vt 0.807497 0.576113
vt 0.908925 0.445228
vt 0.992118 0.010889
vt 0.992118 0.445228
vt 0.908917 0.445248
vt 0.992110 0.010909
vt 0.992110 0.445248
vt 0.015065 0.008416
vt 0.890690 0.010984
vt 0.908925 0.010889
vt 0.908917 0.010909
vn -0.9249 0.3729 -0.0735
vn 0.0793 -0.0000 -0.9969
vn 0.9249 -0.3729 0.0735
vn -0.0793 0.0000 0.9969
vn -0.3718 -0.9279 -0.0296
vn 0.3718 0.9279 0.0296
usemtl None
s off
f 2/1/1 3/2/1 1/3/1
f 4/4/2 7/5/2 3/2/2
f 8/6/3 5/7/3 7/5/3
f 6/8/4 1/9/4 5/10/4
f 7/11/5 1/12/5 3/13/5
f 4/14/6 6/15/6 8/16/6
f 2/1/1 4/4/1 3/2/1
f 4/4/2 8/6/2 7/5/2
f 8/6/3 6/17/3 5/7/3
f 6/8/4 2/18/4 1/9/4
f 7/11/5 5/19/5 1/12/5
f 4/14/6 2/20/6 6/15/6
