# Blender v2.80 (sub 75) OBJ File: 'the_room.blend'
# www.blender.org
mtllib book010.mtl
o book.010_Cube.007
v -5.905193 2.035674 -9.248574
v -5.690747 2.802500 -9.505975
v -5.411577 2.036028 -8.836279
v -5.197131 2.802854 -9.093679
v -5.977579 2.084994 -9.161953
v -5.763133 2.851820 -9.419353
v -5.483963 2.085347 -8.749658
v -5.269517 2.852173 -9.007058
vt 0.015065 0.991035
vt 0.598448 0.542665
vt 0.598447 0.991035
vt 0.015065 0.542665
vt 0.598448 0.456785
vt 0.015065 0.456785
vt 0.598448 0.008416
vt 0.807497 0.010984
vt 0.890690 0.576113
vt 0.807497 0.576113
vt 0.908925 0.445228
vt 0.992118 0.010889
vt 0.992118 0.445228
vt 0.908917 0.445248
vt 0.992110 0.010909
vt 0.992110 0.445248
vt 0.015065 0.008416
vt 0.890690 0.010984
vt 0.908925 0.010889
vt 0.908917 0.010909
vn 0.5876 -0.4004 -0.7032
vn 0.7675 0.0006 0.6411
vn -0.5876 0.4004 0.7032
vn -0.7675 -0.0006 -0.6411
vn -0.2563 -0.9164 0.3076
vn 0.2563 0.9164 -0.3076
vn 0.7675 0.0005 0.6411
usemtl None
s off
f 2/1/1 3/2/1 1/3/1
f 4/4/2 7/5/2 3/2/2
f 8/6/3 5/7/3 7/5/3
f 6/8/4 1/9/4 5/10/4
f 7/11/5 1/12/5 3/13/5
f 4/14/6 6/15/6 8/16/6
f 2/1/1 4/4/1 3/2/1
f 4/4/7 8/6/7 7/5/7
f 8/6/3 6/17/3 5/7/3
f 6/8/4 2/18/4 1/9/4
f 7/11/5 5/19/5 1/12/5
f 4/14/6 2/20/6 6/15/6
