# Blender v2.80 (sub 75) OBJ File: 'the_room.blend'
# www.blender.org
mtllib book006.mtl
o book.006_Cube.007
v -4.631146 2.377745 -9.823545
v -5.395298 2.375465 -9.482471
v -4.369009 2.377899 -9.236239
v -5.133161 2.375619 -8.895166
v -4.630828 2.254557 -9.823654
v -5.394980 2.252277 -9.482581
v -4.368690 2.254711 -9.236349
v -5.132842 2.252431 -8.895276
vt 0.015065 0.991035
vt 0.598448 0.542665
vt 0.598447 0.991035
vt 0.015065 0.542665
vt 0.598448 0.456785
vt 0.015065 0.456785
vt 0.598448 0.008416
vt 0.807497 0.010984
vt 0.890690 0.576113
vt 0.807497 0.576113
vt 0.908925 0.445228
vt 0.992118 0.010889
vt 0.992118 0.445228
vt 0.908917 0.445248
vt 0.992110 0.010909
vt 0.992110 0.445248
vt 0.015065 0.008416
vt 0.890690 0.010984
vt 0.908925 0.010889
vt 0.908917 0.010909
vn -0.0026 1.0000 0.0009
vn 0.4076 0.0002 0.9132
vn 0.0026 -1.0000 -0.0009
vn -0.4076 -0.0002 -0.9132
vn 0.9132 0.0027 -0.4076
vn -0.9132 -0.0027 0.4076
usemtl None
s off
f 2/1/1 3/2/1 1/3/1
f 4/4/2 7/5/2 3/2/2
f 8/6/3 5/7/3 7/5/3
f 6/8/4 1/9/4 5/10/4
f 7/11/5 1/12/5 3/13/5
f 4/14/6 6/15/6 8/16/6
f 2/1/1 4/4/1 3/2/1
f 4/4/2 8/6/2 7/5/2
f 8/6/3 6/17/3 5/7/3
f 6/8/4 2/18/4 1/9/4
f 7/11/5 5/19/5 1/12/5
f 4/14/6 2/20/6 6/15/6
