# Blender v2.80 (sub 75) OBJ File: 'the_room.blend'
# www.blender.org
mtllib drinks_can002.mtl
o drinks_can.002_Cylinder.005
v -5.305971 4.525489 -2.667979
v -5.227546 4.520782 -2.319168
v -5.255538 4.563539 -2.678344
v -5.181058 4.555855 -2.328723
v -5.192830 4.564058 -2.691233
v -5.123254 4.556334 -2.340604
v -5.141798 4.526849 -2.701722
v -5.076214 4.522036 -2.350273
v -5.121936 4.466124 -2.705804
v -5.057905 4.466060 -2.354036
v -5.140830 4.405077 -2.701921
v -5.075321 4.409788 -2.350456
v -5.191263 4.367027 -2.691555
v -5.121810 4.374713 -2.340900
v -5.253971 4.366508 -2.678666
v -5.179614 4.374234 -2.329020
v -5.305002 4.403717 -2.668177
v -5.226654 4.408534 -2.319351
v -5.324864 4.464442 -2.664095
v -5.244963 4.464509 -2.315588
v -5.187051 4.571844 -2.331364
v -5.241746 4.530578 -2.320122
v -5.119043 4.572407 -2.345342
v -5.063699 4.532053 -2.356717
v -5.042159 4.466196 -2.361145
v -5.062649 4.399991 -2.356933
v -5.117344 4.358726 -2.345691
v -5.185352 4.358162 -2.331712
v -5.240695 4.398516 -2.320338
v -5.262236 4.464373 -2.315910
v -5.311635 4.530577 -2.660156
v -5.256940 4.571842 -2.671398
v -5.188933 4.572406 -2.685376
v -5.133589 4.532052 -2.696751
v -5.112049 4.466195 -2.701178
v -5.132539 4.399990 -2.696966
v -5.187234 4.358724 -2.685724
v -5.255241 4.358160 -2.671746
v -5.310585 4.398514 -2.660371
v -5.332126 4.464371 -2.655944
v -5.183228 4.565894 -2.322631
v -5.234869 4.526932 -2.312017
v -5.119017 4.566426 -2.335829
v -5.066763 4.528325 -2.346569
v -5.046426 4.466146 -2.350749
v -5.065772 4.403636 -2.346772
v -5.117413 4.364676 -2.336158
v -5.181623 4.364143 -2.322960
v -5.233877 4.402244 -2.312220
v -5.254215 4.464424 -2.308041
v -5.180642 4.557988 -2.323163
v -5.228225 4.522088 -2.313383
v -5.121477 4.558478 -2.335324
v -5.073329 4.523372 -2.345220
v -5.054590 4.466078 -2.349071
v -5.072416 4.408481 -2.345407
v -5.119999 4.372581 -2.335627
v -5.179164 4.372091 -2.323466
v -5.227312 4.407197 -2.313570
v -5.246051 4.464491 -2.309719
vt 0.000137 0.799918
vt 0.499977 0.699945
vt 0.499977 0.799917
vt 0.000137 0.699945
vt 0.499976 0.599972
vt 0.000137 0.599973
vt 0.499976 0.500000
vt 0.000137 0.500000
vt 0.499976 0.400027
vt 0.000137 0.400027
vt 0.499977 0.300055
vt 0.000137 0.300055
vt 0.499977 0.200082
vt 0.000137 0.200082
vt 0.499977 0.100110
vt 0.000137 0.100109
vt 0.499977 0.000137
vt 0.752781 0.413057
vt 0.622950 0.318312
vt 0.829757 0.172808
vt 0.000137 0.999863
vt 0.499977 0.899890
vt 0.499977 0.999862
vt 0.000137 0.899891
vt 0.756596 0.581969
vt 0.844688 0.609801
vt 0.758823 0.877437
vt 0.753208 0.434598
vt 0.856049 0.419500
vt 0.753310 0.452210
vt 0.899217 0.326715
vt 0.845121 0.404689
vt 0.899502 0.232333
vt 0.916058 0.331689
vt 0.842298 0.156086
vt 0.916058 0.226452
vt 0.753667 0.123153
vt 0.852553 0.141949
vt 0.661787 0.149232
vt 0.753995 0.105550
vt 0.603442 0.227436
vt 0.651268 0.134681
vt 0.602364 0.324808
vt 0.586240 0.221967
vt 0.647808 0.420876
vt 0.585511 0.330038
vt 0.658964 0.405552
vt 0.899874 0.776660
vt 0.915288 0.679277
vt 0.915288 0.781796
vt 0.846109 0.850295
vt 0.855384 0.863262
vt 0.758900 0.893660
vt 0.661045 0.863018
vt 0.670576 0.849537
vt 0.615523 0.776229
vt 0.600362 0.781344
vt 0.599463 0.680117
vt 0.614926 0.684952
vt 0.659356 0.597827
vt 0.669021 0.610892
vt 0.756359 0.565647
vt 0.854119 0.596390
vt 0.899511 0.684498
vt 0.752992 0.422202
vt 0.837830 0.395044
vt 0.888098 0.235990
vt 0.888339 0.323289
vt 0.834949 0.165577
vt 0.753069 0.135152
vt 0.668638 0.159345
vt 0.615058 0.231547
vt 0.614279 0.321269
vt 0.666616 0.395041
vt 0.832378 0.387967
vt 0.879802 0.320810
vt 0.879785 0.239035
vt 0.752777 0.143443
vt 0.623746 0.234251
vt 0.674156 0.167198
vt 0.671808 0.387515
vt 0.000137 0.000137
vn -0.5822 0.8042 0.1197
vn -0.0080 1.0000 0.0016
vn 0.5693 0.8138 -0.1170
vn 0.9291 0.3167 -0.1910
vn 0.9340 -0.3013 -0.1920
vn 0.5822 -0.8042 -0.1197
vn 0.0080 -1.0000 -0.0016
vn -0.5693 -0.8138 0.1170
vn 0.2013 0.0000 0.9795
vn -0.9291 -0.3167 0.1910
vn -0.9340 0.3013 0.1920
vn -0.2013 -0.0000 -0.9795
vn -0.3818 0.6774 0.6288
vn 0.1018 0.8423 0.5293
vn 0.5881 0.6855 0.4293
vn 0.8911 0.2668 0.3671
vn 0.8952 -0.2538 0.3662
vn 0.5989 -0.6774 0.4272
vn 0.1152 -0.8423 0.5266
vn -0.3710 -0.6854 0.6265
vn -0.6741 -0.2668 0.6888
vn -0.6782 0.2538 0.6896
vn -0.5175 0.4959 -0.6973
vn -0.1634 0.6166 -0.7701
vn 0.1926 0.5018 -0.8432
vn 0.4145 0.1953 -0.8888
vn 0.4175 -0.1858 -0.8895
vn 0.2006 -0.4960 -0.8449
vn -0.1536 -0.6166 -0.7721
vn -0.5095 -0.5018 -0.6990
vn -0.7315 -0.1953 -0.6533
vn -0.7345 0.1858 -0.6527
vn 0.2014 0.0000 0.9795
vn 0.2012 0.0000 0.9795
vn 0.6156 -0.7501 0.2415
vn 0.0800 -0.9327 0.3518
vn -0.4584 -0.7590 0.4624
vn -0.7940 -0.2954 0.5313
vn -0.7986 0.2810 0.5322
vn -0.4704 0.7501 0.4649
vn 0.0652 0.9327 0.3548
vn 0.6036 0.7590 0.2441
vn 0.9392 0.2954 0.1751
vn 0.9437 -0.2810 0.1742
vn -0.0079 1.0000 0.0016
vn -0.3819 0.6774 0.6287
vn 0.5880 0.6855 0.4294
vn 0.5989 -0.6774 0.4271
vn -0.3711 -0.6855 0.6265
vn -0.6782 0.2538 0.6897
vn -0.5175 0.4960 -0.6973
vn 0.1926 0.5018 -0.8433
vn 0.4145 0.1953 -0.8889
vn 0.2005 -0.4960 -0.8449
vn -0.1536 -0.6167 -0.7721
vn -0.5096 -0.5018 -0.6989
vn -0.7314 -0.1953 -0.6533
vn 0.2013 0.0001 0.9795
vn 0.6156 -0.7501 0.2416
vn 0.0800 -0.9326 0.3518
vn -0.4585 -0.7590 0.4623
vn -0.7986 0.2810 0.5323
vn -0.4704 0.7501 0.4648
vn 0.0652 0.9327 0.3547
vn 0.9438 -0.2810 0.1741
usemtl Material.002
s off
f 22/1/1 32/2/1 31/3/1
f 21/4/2 33/5/2 32/2/2
f 23/6/3 34/7/3 33/5/3
f 24/8/4 35/9/4 34/7/4
f 25/10/5 36/11/5 35/9/5
f 26/12/6 37/13/6 36/11/6
f 27/14/7 38/15/7 37/13/7
f 28/16/8 39/17/8 38/15/8
f 2/18/9 18/19/9 10/20/9
f 29/21/10 40/22/10 39/23/10
f 30/24/11 31/3/11 40/22/11
f 17/25/12 19/26/12 7/27/12
f 42/28/13 21/29/13 22/30/13
f 43/31/14 21/29/14 41/32/14
f 44/33/15 23/34/15 43/31/15
f 45/35/16 24/36/16 44/33/16
f 46/37/17 25/38/17 45/35/17
f 47/39/18 26/40/18 46/37/18
f 48/41/19 27/42/19 47/39/19
f 49/43/20 28/44/20 48/41/20
f 49/43/21 30/45/21 29/46/21
f 42/28/22 30/45/22 50/47/22
f 3/48/23 31/49/23 32/50/23
f 5/51/24 32/50/24 33/52/24
f 5/51/25 34/53/25 7/27/25
f 7/27/26 35/54/26 9/55/26
f 11/56/27 35/54/27 36/57/27
f 11/56/28 37/58/28 13/59/28
f 13/59/29 38/60/29 15/61/29
f 15/61/30 39/62/30 17/25/30
f 17/25/31 40/63/31 19/26/31
f 19/26/32 31/49/32 1/64/32
f 52/65/9 41/32/9 42/28/9
f 51/66/9 43/31/9 41/32/9
f 54/67/9 43/31/9 53/68/9
f 55/69/9 44/33/9 54/67/9
f 56/70/9 45/35/9 55/69/9
f 57/71/33 46/37/33 56/70/33
f 58/72/9 47/39/9 57/71/9
f 59/73/33 48/41/33 58/72/33
f 60/74/33 49/43/33 59/73/33
f 60/74/34 42/28/34 50/47/34
f 4/75/35 52/65/35 2/18/35
f 6/76/36 51/66/36 4/75/36
f 8/77/37 53/68/37 6/76/37
f 10/20/38 54/67/38 8/77/38
f 12/78/39 55/69/39 10/20/39
f 12/78/40 57/71/40 56/70/40
f 16/79/41 57/71/41 14/80/41
f 18/19/42 58/72/42 16/79/42
f 20/81/43 59/73/43 18/19/43
f 2/18/44 60/74/44 20/81/44
f 22/1/1 21/4/1 32/2/1
f 21/4/45 23/6/45 33/5/45
f 23/6/3 24/8/3 34/7/3
f 24/8/4 25/10/4 35/9/4
f 25/10/5 26/12/5 36/11/5
f 26/12/6 27/14/6 37/13/6
f 27/14/7 28/16/7 38/15/7
f 28/16/8 29/82/8 39/17/8
f 6/76/9 4/75/9 2/18/9
f 2/18/33 20/81/33 18/19/33
f 18/19/9 16/79/9 10/20/9
f 16/79/9 14/80/9 10/20/9
f 14/80/9 12/78/9 10/20/9
f 10/20/9 8/77/9 6/76/9
f 6/76/9 2/18/9 10/20/9
f 29/21/10 30/24/10 40/22/10
f 30/24/11 22/1/11 31/3/11
f 19/26/12 1/64/12 7/27/12
f 1/64/12 3/48/12 7/27/12
f 3/48/12 5/51/12 7/27/12
f 7/27/12 9/55/12 15/61/12
f 9/55/12 11/56/12 15/61/12
f 11/56/12 13/59/12 15/61/12
f 15/61/12 17/25/12 7/27/12
f 42/28/46 41/32/46 21/29/46
f 43/31/14 23/34/14 21/29/14
f 44/33/47 24/36/47 23/34/47
f 45/35/16 25/38/16 24/36/16
f 46/37/17 26/40/17 25/38/17
f 47/39/48 27/42/48 26/40/48
f 48/41/19 28/44/19 27/42/19
f 49/43/49 29/46/49 28/44/49
f 49/43/21 50/47/21 30/45/21
f 42/28/50 22/30/50 30/45/50
f 3/48/51 1/64/51 31/49/51
f 5/51/24 3/48/24 32/50/24
f 5/51/52 33/52/52 34/53/52
f 7/27/53 34/53/53 35/54/53
f 11/56/27 9/55/27 35/54/27
f 11/56/54 36/57/54 37/58/54
f 13/59/55 37/58/55 38/60/55
f 15/61/56 38/60/56 39/62/56
f 17/25/57 39/62/57 40/63/57
f 19/26/32 40/63/32 31/49/32
f 52/65/33 51/66/33 41/32/33
f 51/66/33 53/68/33 43/31/33
f 54/67/9 44/33/9 43/31/9
f 55/69/9 45/35/9 44/33/9
f 56/70/9 46/37/9 45/35/9
f 57/71/9 47/39/9 46/37/9
f 58/72/58 48/41/58 47/39/58
f 59/73/33 49/43/33 48/41/33
f 60/74/34 50/47/34 49/43/34
f 60/74/9 52/65/9 42/28/9
f 4/75/59 51/66/59 52/65/59
f 6/76/60 53/68/60 51/66/60
f 8/77/61 54/67/61 53/68/61
f 10/20/38 55/69/38 54/67/38
f 12/78/62 56/70/62 55/69/62
f 12/78/63 14/80/63 57/71/63
f 16/79/64 58/72/64 57/71/64
f 18/19/42 59/73/42 58/72/42
f 20/81/43 60/74/43 59/73/43
f 2/18/65 52/65/65 60/74/65
